<svg width="57" height="42" viewBox="0 0 57 42" fill="none" xmlns="http://www.w3.org/2000/svg">
<path d="M29 30C20.7143 30 14 23.2857 14 15C14 6.71433 20.7143 0 29 0C37.2858 0 44.0001 6.71426 44.0001 15C44.0001 23.2858 37.2857 30 29 30ZM29 2.14286C21.8929 2.14286 16.1429 7.89284 16.1429 15C16.1429 22.1072 21.8928 27.8571 29 27.8571C36.1072 27.8571 41.8571 22.1072 41.8571 15C41.8571 7.89291 36.1072 2.14286 29 2.14286Z" fill="#1185E0"/>
<path d="M35.0714 13.9286H30.0714V8.92857C30.0714 8.32141 29.6071 7.85718 29 7.85718C28.3928 7.85718 27.9286 8.32147 27.9286 8.92857V13.9286H22.9286C22.3214 13.9286 21.8572 14.3929 21.8572 15C21.8572 15.6072 22.3215 16.0714 22.9286 16.0714H27.9286V21.0714C27.9286 21.6786 28.3929 22.1428 29 22.1428C29.6072 22.1428 30.0714 21.6785 30.0714 21.0714V16.0714H35.0714C35.6786 16.0714 36.1428 15.6071 36.1428 15C36.1428 14.3929 35.6785 13.9286 35.0714 13.9286Z" fill="#1185E0"/>
<path d="M4.75098 37.1445H1.77246L1.10352 39H0.136719L2.85156 31.8906H3.67188L6.3916 39H5.42969L4.75098 37.1445ZM2.05566 36.373H4.47266L3.26172 33.0479L2.05566 36.373ZM7.2373 36.3145C7.2373 35.5039 7.42936 34.8529 7.81348 34.3613C8.19759 33.8665 8.70052 33.6191 9.32227 33.6191C9.94076 33.6191 10.4307 33.8307 10.792 34.2539V31.5H11.6953V39H10.8652L10.8213 38.4336C10.46 38.8763 9.95703 39.0977 9.3125 39.0977C8.70052 39.0977 8.20085 38.847 7.81348 38.3457C7.42936 37.8444 7.2373 37.1901 7.2373 36.3828V36.3145ZM8.14062 36.417C8.14062 37.016 8.26432 37.4847 8.51172 37.8232C8.75911 38.1618 9.10091 38.3311 9.53711 38.3311C10.11 38.3311 10.5283 38.0739 10.792 37.5596V35.1328C10.5218 34.6348 10.1068 34.3857 9.54688 34.3857C9.10417 34.3857 8.75911 34.5566 8.51172 34.8984C8.26432 35.2402 8.14062 35.7464 8.14062 36.417ZM13.1318 36.3145C13.1318 35.5039 13.3239 34.8529 13.708 34.3613C14.0921 33.8665 14.5951 33.6191 15.2168 33.6191C15.8353 33.6191 16.3252 33.8307 16.6865 34.2539V31.5H17.5898V39H16.7598L16.7158 38.4336C16.3545 38.8763 15.8516 39.0977 15.207 39.0977C14.5951 39.0977 14.0954 38.847 13.708 38.3457C13.3239 37.8444 13.1318 37.1901 13.1318 36.3828V36.3145ZM14.0352 36.417C14.0352 37.016 14.1589 37.4847 14.4062 37.8232C14.6536 38.1618 14.9954 38.3311 15.4316 38.3311C16.0046 38.3311 16.4229 38.0739 16.6865 37.5596V35.1328C16.4163 34.6348 16.0013 34.3857 15.4414 34.3857C14.9987 34.3857 14.6536 34.5566 14.4062 34.8984C14.1589 35.2402 14.0352 35.7464 14.0352 36.417ZM26.0439 37.1445H23.0654L22.3965 39H21.4297L24.1445 31.8906H24.9648L27.6846 39H26.7227L26.0439 37.1445ZM23.3486 36.373H25.7656L24.5547 33.0479L23.3486 36.373ZM30.8691 38.3604C31.1914 38.3604 31.473 38.2627 31.7139 38.0674C31.9548 37.8721 32.0882 37.6279 32.1143 37.335H32.9688C32.9525 37.6377 32.8483 37.9258 32.6562 38.1992C32.4642 38.4727 32.207 38.6908 31.8848 38.8535C31.5658 39.0163 31.2272 39.0977 30.8691 39.0977C30.1497 39.0977 29.5768 38.8584 29.1504 38.3799C28.7272 37.8981 28.5156 37.2406 28.5156 36.4072V36.2559C28.5156 35.7415 28.61 35.2842 28.7988 34.8838C28.9876 34.4834 29.2578 34.1725 29.6094 33.9512C29.9642 33.7298 30.3825 33.6191 30.8643 33.6191C31.4567 33.6191 31.9482 33.7965 32.3389 34.1514C32.7327 34.5062 32.9427 34.9668 32.9688 35.5332H32.1143C32.0882 35.1914 31.958 34.9115 31.7236 34.6934C31.4925 34.472 31.2061 34.3613 30.8643 34.3613C30.4053 34.3613 30.0488 34.5273 29.7949 34.8594C29.5443 35.1882 29.4189 35.665 29.4189 36.29V36.4609C29.4189 37.0697 29.5443 37.5384 29.7949 37.8672C30.0456 38.196 30.4036 38.3604 30.8691 38.3604ZM35.46 32.4375V33.7168H36.4463V34.415H35.46V37.6914C35.46 37.903 35.5039 38.0625 35.5918 38.1699C35.6797 38.2741 35.8294 38.3262 36.041 38.3262C36.1452 38.3262 36.2884 38.3066 36.4707 38.2676V39C36.2331 39.0651 36.002 39.0977 35.7773 39.0977C35.3737 39.0977 35.0693 38.9756 34.8643 38.7314C34.6592 38.4873 34.5566 38.1406 34.5566 37.6914V34.415H33.5947V33.7168H34.5566V32.4375H35.46ZM38.7373 39H37.834V33.7168H38.7373V39ZM37.7607 32.3154C37.7607 32.1689 37.8047 32.0452 37.8926 31.9443C37.9837 31.8434 38.1172 31.793 38.293 31.793C38.4688 31.793 38.6022 31.8434 38.6934 31.9443C38.7845 32.0452 38.8301 32.1689 38.8301 32.3154C38.8301 32.4619 38.7845 32.584 38.6934 32.6816C38.6022 32.7793 38.4688 32.8281 38.293 32.8281C38.1172 32.8281 37.9837 32.7793 37.8926 32.6816C37.8047 32.584 37.7607 32.4619 37.7607 32.3154ZM42.1807 37.7744L43.4893 33.7168H44.4121L42.5176 39H41.8291L39.915 33.7168H40.8379L42.1807 37.7744ZM46.5127 39H45.6094V33.7168H46.5127V39ZM45.5361 32.3154C45.5361 32.1689 45.5801 32.0452 45.668 31.9443C45.7591 31.8434 45.8926 31.793 46.0684 31.793C46.2441 31.793 46.3776 31.8434 46.4688 31.9443C46.5599 32.0452 46.6055 32.1689 46.6055 32.3154C46.6055 32.4619 46.5599 32.584 46.4688 32.6816C46.3776 32.7793 46.2441 32.8281 46.0684 32.8281C45.8926 32.8281 45.7591 32.7793 45.668 32.6816C45.5801 32.584 45.5361 32.4619 45.5361 32.3154ZM49.4385 32.4375V33.7168H50.4248V34.415H49.4385V37.6914C49.4385 37.903 49.4824 38.0625 49.5703 38.1699C49.6582 38.2741 49.8079 38.3262 50.0195 38.3262C50.1237 38.3262 50.2669 38.3066 50.4492 38.2676V39C50.2116 39.0651 49.9805 39.0977 49.7559 39.0977C49.3522 39.0977 49.0479 38.9756 48.8428 38.7314C48.6377 38.4873 48.5352 38.1406 48.5352 37.6914V34.415H47.5732V33.7168H48.5352V32.4375H49.4385ZM53.4629 37.6768L54.6934 33.7168H55.6602L53.5361 39.8154C53.2074 40.6943 52.6849 41.1338 51.9688 41.1338L51.7979 41.1191L51.4609 41.0557V40.3232L51.7051 40.3428C52.0111 40.3428 52.2487 40.2809 52.418 40.1572C52.5905 40.0335 52.7321 39.8073 52.8428 39.4785L53.043 38.9414L51.1582 33.7168H52.1445L53.4629 37.6768Z" fill="#1185E0"/>
</svg>
