<svg width="32" height="37" viewBox="0 0 32 37" fill="none" xmlns="http://www.w3.org/2000/svg">
<path d="M6.7207 31.5464H3.43896V35H2.40771V27.1797H7.25244V28.0283H3.43896V30.7031H6.7207V31.5464ZM9.66162 35H8.66797V29.1885H9.66162V35ZM8.5874 27.647C8.5874 27.4858 8.63574 27.3498 8.73242 27.2388C8.83268 27.1278 8.97949 27.0723 9.17285 27.0723C9.36621 27.0723 9.51302 27.1278 9.61328 27.2388C9.71354 27.3498 9.76367 27.4858 9.76367 27.647C9.76367 27.8081 9.71354 27.9424 9.61328 28.0498C9.51302 28.1572 9.36621 28.2109 9.17285 28.2109C8.97949 28.2109 8.83268 28.1572 8.73242 28.0498C8.63574 27.9424 8.5874 27.8081 8.5874 27.647ZM12.5864 35H11.5928V26.75H12.5864V35ZM15.7798 27.7812V29.1885H16.8647V29.9565H15.7798V33.5605C15.7798 33.7933 15.8281 33.9688 15.9248 34.0869C16.0215 34.2015 16.1862 34.2588 16.4189 34.2588C16.5335 34.2588 16.6911 34.2373 16.8916 34.1943V35C16.6302 35.0716 16.376 35.1074 16.1289 35.1074C15.6849 35.1074 15.3501 34.9731 15.1245 34.7046C14.8989 34.436 14.7861 34.0547 14.7861 33.5605V29.9565H13.728V29.1885H14.7861V27.7812H15.7798ZM20.6919 35.1074C19.9041 35.1074 19.2632 34.8496 18.769 34.334C18.2749 33.8148 18.0278 33.1219 18.0278 32.2554V32.0728C18.0278 31.4963 18.137 30.9824 18.3555 30.5312C18.5775 30.0765 18.8854 29.722 19.2793 29.4678C19.6768 29.21 20.1064 29.0811 20.5684 29.0811C21.3239 29.0811 21.9111 29.3299 22.3301 29.8276C22.749 30.3254 22.9585 31.0379 22.9585 31.9653V32.3789H19.0215C19.0358 32.9518 19.2023 33.4155 19.521 33.77C19.8433 34.1209 20.2515 34.2964 20.7456 34.2964C21.0965 34.2964 21.3937 34.2248 21.6372 34.0815C21.8807 33.9383 22.0938 33.7485 22.2764 33.5122L22.8833 33.9849C22.3963 34.7332 21.6659 35.1074 20.6919 35.1074ZM20.5684 29.8975C20.1673 29.8975 19.8307 30.0443 19.5586 30.3379C19.2865 30.6279 19.1182 31.0361 19.0537 31.5625H21.9648V31.4873C21.9362 30.9824 21.8001 30.5921 21.5566 30.3164C21.3132 30.0371 20.9837 29.8975 20.5684 29.8975ZM27.1724 30.0801C27.022 30.055 26.859 30.0425 26.6836 30.0425C26.0319 30.0425 25.5897 30.32 25.3569 30.875V35H24.3633V29.1885H25.3301L25.3462 29.8599C25.672 29.3407 26.134 29.0811 26.7319 29.0811C26.9253 29.0811 27.0721 29.1061 27.1724 29.1562V30.0801Z" fill="#1185E0"/>
<path d="M1.05306 13.7222H14.4612C14.9327 15.4228 16.6837 16.6888 18.7714 16.6888C20.8592 16.6888 22.6041 15.4228 23.0816 13.7222H28.9469C29.5286 13.7222 30 13.3092 30 12.7996C30 12.2899 29.5286 11.8822 28.9469 11.8822H23.0816C22.6102 10.1817 20.8592 8.91571 18.7714 8.91571C16.6837 8.91571 14.9388 10.1817 14.4612 11.8822H1.05306C0.471429 11.8822 0 12.2953 0 12.7996C0.00612245 13.3145 0.477551 13.7222 1.05306 13.7222ZM18.7714 10.7611C20.0571 10.7611 21.1041 11.6784 21.1041 12.8049C21.1041 13.9314 20.0571 14.8488 18.7714 14.8488C17.4857 14.8488 16.4327 13.9314 16.4327 12.8049C16.4327 11.6784 17.4796 10.7611 18.7714 10.7611Z" fill="#1185E0"/>
<path d="M1.05306 22.6432H7.48776C7.95918 24.3437 9.7102 25.6097 11.798 25.6097C13.8857 25.6097 15.6306 24.3437 16.1082 22.6432H28.9469C29.5286 22.6432 30 22.2301 30 21.7259C30 21.2163 29.5286 20.8032 28.9469 20.8032H16.1082C15.6367 19.1027 13.8857 17.8367 11.798 17.8367C9.7102 17.8367 7.96531 19.1027 7.48776 20.8032H1.05306C0.471429 20.8032 0 21.2163 0 21.7259C0.00612245 22.2301 0.477551 22.6432 1.05306 22.6432ZM11.798 19.6767C13.0837 19.6767 14.1306 20.594 14.1306 21.7205C14.1306 22.847 13.0837 23.7644 11.798 23.7644C10.5306 23.7644 9.49592 22.8739 9.46531 21.7634C9.46531 21.7473 9.46531 21.7312 9.46531 21.7151C9.46531 21.6991 9.46531 21.683 9.46531 21.6669C9.49592 20.5672 10.5306 19.6767 11.798 19.6767Z" fill="#1185E0"/>
<path d="M1.05306 4.80652H7.48776C7.95918 6.50704 9.7102 7.77305 11.798 7.77305C13.8857 7.77305 15.6306 6.50704 16.1082 4.80652H28.9469C29.5286 4.80652 30 4.39346 30 3.88384C30 3.37422 29.5286 2.96653 28.9469 2.96653H16.1082C15.6367 1.266 13.8857 0 11.798 0C9.7102 0 7.96531 1.266 7.48776 2.96653H1.05306C0.471429 2.96653 0 3.37959 0 3.88384C0.00612245 4.39346 0.477551 4.80652 1.05306 4.80652ZM11.798 1.84C13.0837 1.84 14.1306 2.75731 14.1306 3.88384C14.1306 5.01037 13.0837 5.92769 11.798 5.92769C10.5306 5.92769 9.49592 5.03719 9.46531 3.92676C9.46531 3.91066 9.46531 3.89457 9.46531 3.87848C9.46531 3.86238 9.46531 3.84629 9.46531 3.8302C9.49592 2.73586 10.5306 1.84 11.798 1.84Z" fill="#1185E0"/>
</svg>
