<svg width="40" height="47" viewBox="0 0 40 47" fill="none" xmlns="http://www.w3.org/2000/svg">
<path d="M8.74609 41.8604H5.7627V45H4.8252V37.8906H9.22949V38.6621H5.7627V41.0938H8.74609V41.8604ZM11.4424 45H10.5391V39.7168H11.4424V45ZM10.4658 38.3154C10.4658 38.1689 10.5098 38.0452 10.5977 37.9443C10.6888 37.8434 10.8223 37.793 10.998 37.793C11.1738 37.793 11.3073 37.8434 11.3984 37.9443C11.4896 38.0452 11.5352 38.1689 11.5352 38.3154C11.5352 38.4619 11.4896 38.584 11.3984 38.6816C11.3073 38.7793 11.1738 38.8281 10.998 38.8281C10.8223 38.8281 10.6888 38.7793 10.5977 38.6816C10.5098 38.584 10.4658 38.4619 10.4658 38.3154ZM14.124 45H13.2207V37.5H14.124V45ZM17.0498 38.4375V39.7168H18.0361V40.415H17.0498V43.6914C17.0498 43.903 17.0938 44.0625 17.1816 44.1699C17.2695 44.2741 17.4193 44.3262 17.6309 44.3262C17.735 44.3262 17.8783 44.3066 18.0605 44.2676V45C17.8229 45.0651 17.5918 45.0977 17.3672 45.0977C16.9635 45.0977 16.6592 44.9756 16.4541 44.7314C16.249 44.4873 16.1465 44.1406 16.1465 43.6914V40.415H15.1846V39.7168H16.1465V38.4375H17.0498ZM21.5381 45.0977C20.8219 45.0977 20.2393 44.8633 19.79 44.3945C19.3408 43.9225 19.1162 43.2926 19.1162 42.5049V42.3389C19.1162 41.8148 19.2155 41.3477 19.4141 40.9375C19.6159 40.5241 19.8958 40.2018 20.2539 39.9707C20.6152 39.7363 21.0059 39.6191 21.4258 39.6191C22.1126 39.6191 22.6465 39.8454 23.0273 40.2979C23.4082 40.7503 23.5986 41.3981 23.5986 42.2412V42.6172H20.0195C20.0326 43.138 20.1839 43.5596 20.4736 43.8818C20.7666 44.2008 21.1377 44.3604 21.5869 44.3604C21.9059 44.3604 22.1761 44.2952 22.3975 44.165C22.6188 44.0348 22.8125 43.8623 22.9785 43.6475L23.5303 44.0771C23.0876 44.7575 22.4235 45.0977 21.5381 45.0977ZM21.4258 40.3613C21.0612 40.3613 20.7552 40.4948 20.5078 40.7617C20.2604 41.0254 20.1074 41.3965 20.0488 41.875H22.6953V41.8066C22.6693 41.3477 22.5456 40.9928 22.3242 40.7422C22.1029 40.4883 21.8034 40.3613 21.4258 40.3613ZM27.4521 40.5273C27.3154 40.5046 27.1673 40.4932 27.0078 40.4932C26.4154 40.4932 26.0133 40.7454 25.8018 41.25V45H24.8984V39.7168H25.7773L25.792 40.3271C26.0882 39.8551 26.5081 39.6191 27.0518 39.6191C27.2275 39.6191 27.361 39.6419 27.4521 39.6875V40.5273Z" fill="#1185E0"/>
<path d="M27.7801 0H12.9525C12.6077 0 12.2629 0.129282 12.0474 0.387928L3.29735 9.13793C3.0387 9.39659 2.90942 9.69826 2.90942 10.0431V31.5947C2.90942 32.3275 3.46978 32.8878 4.20249 32.8878H16.5732C17.306 32.8878 17.8662 32.3274 17.8662 31.5947C17.8662 30.862 17.3059 30.3017 16.5732 30.3017H5.49564V11.3362H12.9525C13.6853 11.3362 14.2456 10.7758 14.2456 10.0432V2.58621H26.487V19.3534C26.487 20.0862 27.0474 20.6466 27.7801 20.6466C28.5129 20.6466 29.0732 20.0862 29.0732 19.3534V1.29306C29.0732 0.560358 28.5129 0 27.7801 0ZM7.306 8.75002L11.6594 4.39657V8.75002H7.306Z" fill="#1185E0"/>
<path d="M21.4009 16.8965H10.5819C9.84913 16.8965 9.28885 16.3362 9.28885 15.6035C9.28885 14.8707 9.8492 14.3104 10.5819 14.3104H21.4009C22.1337 14.3104 22.694 14.8707 22.694 15.6035C22.694 16.3362 22.1337 16.8965 21.4009 16.8965Z" fill="#1185E0"/>
<path d="M21.4009 22.069H10.5819C9.84913 22.069 9.28885 21.5086 9.28885 20.7759C9.28885 20.0431 9.8492 19.4828 10.5819 19.4828H21.4009C22.1337 19.4828 22.694 20.0432 22.694 20.7759C22.694 21.5086 22.1337 22.069 21.4009 22.069Z" fill="#1185E0"/>
<path d="M36.7025 37.8017L33.1681 34.3103C33.987 33.1034 34.5042 31.681 34.5042 30.1292C34.5042 26.0776 31.2284 22.8017 27.1767 22.8017C23.125 22.8017 19.8491 26.0776 19.8491 30.1292C19.8491 34.181 23.125 37.4568 27.1767 37.4568C28.7284 37.4568 30.1939 36.9827 31.3578 36.1206L34.8923 39.6119C35.1509 39.8706 35.4526 39.9999 35.7974 39.9999C36.1423 39.9999 36.444 39.8706 36.7025 39.6119C37.2198 39.0948 37.2198 38.2759 36.7025 37.8017ZM22.4353 30.1292C22.4353 27.5 24.5474 25.3879 27.1767 25.3879C29.806 25.3879 31.9181 27.5 31.9181 30.1292C31.9181 32.7585 29.806 34.8706 27.1767 34.8706C24.5474 34.8706 22.4353 32.7585 22.4353 30.1292Z" fill="#1185E0"/>
</svg>
