<svg width="569" height="493" viewBox="0 0 569 493" fill="none" xmlns="http://www.w3.org/2000/svg">
<path d="M395.172 0H184.25C179.345 0 174.44 1.5934 171.375 4.78121L46.905 112.625C43.2257 115.813 41.3867 119.531 41.3867 123.781V389.405C41.3867 398.436 49.3578 405.342 59.7806 405.342H235.754C246.178 405.342 254.147 398.435 254.147 389.405C254.147 380.374 246.176 373.468 235.754 373.468H78.1756V139.719H184.25C194.674 139.719 202.644 132.812 202.644 123.782V31.875H376.778V238.531C376.778 247.563 384.749 254.469 395.172 254.469C405.596 254.469 413.566 247.562 413.566 238.531V15.937C413.567 6.90641 405.596 0 395.172 0ZM103.928 107.844L165.855 54.1877V107.844H103.928Z" fill="#1185E0"/>
<path d="M304.428 208.25H150.528C140.104 208.25 132.134 201.344 132.134 192.313C132.134 183.282 140.105 176.376 150.528 176.376H304.428C314.852 176.376 322.822 183.282 322.822 192.313C322.822 201.344 314.852 208.25 304.428 208.25Z" fill="#1185E0"/>
<path d="M304.428 272H150.528C140.104 272 132.134 265.094 132.134 256.063C132.134 247.031 140.105 240.126 150.528 240.126H304.428C314.852 240.126 322.822 247.032 322.822 256.063C322.822 265.094 314.852 272 304.428 272Z" fill="#1185E0"/>
<path d="M522.094 465.906L471.816 422.875C483.466 408 490.823 390.469 490.823 371.343C490.823 321.406 444.224 281.031 386.589 281.031C328.953 281.031 282.354 321.406 282.354 371.343C282.354 421.281 328.953 461.655 386.589 461.655C408.662 461.655 429.509 455.812 446.065 445.187L496.343 488.217C500.022 491.405 504.314 492.999 509.218 492.999C514.124 492.999 518.416 491.405 522.094 488.217C529.452 481.843 529.452 471.75 522.094 465.906ZM319.143 371.343C319.143 338.938 349.187 312.906 386.589 312.906C423.99 312.906 454.035 338.938 454.035 371.343C454.035 403.749 423.99 429.78 386.589 429.78C349.187 429.78 319.143 403.749 319.143 371.343Z" fill="#1185E0"/>
</svg>
