<svg width="62" height="42" viewBox="0 0 62 42" fill="none" xmlns="http://www.w3.org/2000/svg">
<path d="M3.43262 36.124H1.7627V39H0.820312V31.8906H3.17383C3.97461 31.8906 4.58984 32.0729 5.01953 32.4375C5.45247 32.8021 5.66895 33.3327 5.66895 34.0293C5.66895 34.472 5.5485 34.8577 5.30762 35.1865C5.06999 35.5153 4.73796 35.7611 4.31152 35.9238L5.98145 38.9414V39H4.97559L3.43262 36.124ZM1.7627 35.3574H3.20312C3.66862 35.3574 4.03809 35.237 4.31152 34.9961C4.58822 34.7552 4.72656 34.4329 4.72656 34.0293C4.72656 33.5898 4.59473 33.2529 4.33105 33.0186C4.07064 32.7842 3.69303 32.6654 3.19824 32.6621H1.7627V35.3574ZM9.28809 39.0977C8.57194 39.0977 7.98926 38.8633 7.54004 38.3945C7.09082 37.9225 6.86621 37.2926 6.86621 36.5049V36.3389C6.86621 35.8148 6.96549 35.3477 7.16406 34.9375C7.36589 34.5241 7.64583 34.2018 8.00391 33.9707C8.36523 33.7363 8.75586 33.6191 9.17578 33.6191C9.86263 33.6191 10.3965 33.8454 10.7773 34.2979C11.1582 34.7503 11.3486 35.3981 11.3486 36.2412V36.6172H7.76953C7.78255 37.138 7.93392 37.5596 8.22363 37.8818C8.5166 38.2008 8.8877 38.3604 9.33691 38.3604C9.65592 38.3604 9.92611 38.2952 10.1475 38.165C10.3688 38.0348 10.5625 37.8623 10.7285 37.6475L11.2803 38.0771C10.8376 38.7575 10.1735 39.0977 9.28809 39.0977ZM9.17578 34.3613C8.8112 34.3613 8.50521 34.4948 8.25781 34.7617C8.01042 35.0254 7.85742 35.3965 7.79883 35.875H10.4453V35.8066C10.4193 35.3477 10.2956 34.9928 10.0742 34.7422C9.85286 34.4883 9.55339 34.3613 9.17578 34.3613ZM15.7246 37.5986C15.7246 37.3545 15.6318 37.1657 15.4463 37.0322C15.264 36.8955 14.9434 36.7783 14.4844 36.6807C14.0286 36.583 13.6657 36.4658 13.3955 36.3291C13.1286 36.1924 12.93 36.0296 12.7998 35.8408C12.6729 35.652 12.6094 35.4274 12.6094 35.167C12.6094 34.734 12.7917 34.3678 13.1562 34.0684C13.5241 33.7689 13.9928 33.6191 14.5625 33.6191C15.1615 33.6191 15.6465 33.7738 16.0176 34.083C16.3919 34.3923 16.5791 34.7878 16.5791 35.2695H15.6709C15.6709 35.0221 15.5651 34.8089 15.3535 34.6299C15.1452 34.4508 14.8815 34.3613 14.5625 34.3613C14.2337 34.3613 13.9766 34.4329 13.791 34.5762C13.6055 34.7194 13.5127 34.9066 13.5127 35.1377C13.5127 35.3558 13.599 35.5202 13.7715 35.6309C13.944 35.7415 14.2549 35.8473 14.7041 35.9482C15.1566 36.0492 15.5228 36.1696 15.8027 36.3096C16.0827 36.4495 16.2894 36.6188 16.4229 36.8174C16.5596 37.0127 16.6279 37.252 16.6279 37.5352C16.6279 38.0072 16.4391 38.3864 16.0615 38.6729C15.6839 38.9561 15.194 39.0977 14.5918 39.0977C14.1686 39.0977 13.7943 39.0228 13.4688 38.873C13.1432 38.7233 12.8877 38.515 12.7021 38.248C12.5199 37.9779 12.4287 37.6865 12.4287 37.374H13.332C13.3483 37.6768 13.4688 37.9176 13.6934 38.0967C13.9212 38.2725 14.2207 38.3604 14.5918 38.3604C14.9336 38.3604 15.207 38.292 15.4121 38.1553C15.6204 38.0153 15.7246 37.8298 15.7246 37.5986ZM21.3164 38.4775C20.9648 38.891 20.4489 39.0977 19.7686 39.0977C19.2054 39.0977 18.7757 38.9349 18.4795 38.6094C18.1865 38.2806 18.0384 37.7956 18.0352 37.1543V33.7168H18.9385V37.1299C18.9385 37.9307 19.264 38.3311 19.915 38.3311C20.6051 38.3311 21.0641 38.0739 21.292 37.5596V33.7168H22.1953V39H21.3359L21.3164 38.4775ZM24.8037 39H23.9004V31.5H24.8037V39ZM27.7295 32.4375V33.7168H28.7158V34.415H27.7295V37.6914C27.7295 37.903 27.7734 38.0625 27.8613 38.1699C27.9492 38.2741 28.099 38.3262 28.3105 38.3262C28.4147 38.3262 28.5579 38.3066 28.7402 38.2676V39C28.5026 39.0651 28.2715 39.0977 28.0469 39.0977C27.6432 39.0977 27.3389 38.9756 27.1338 38.7314C26.9287 38.4873 26.8262 38.1406 26.8262 37.6914V34.415H25.8643V33.7168H26.8262V32.4375H27.7295ZM33.1016 37.5986C33.1016 37.3545 33.0088 37.1657 32.8232 37.0322C32.641 36.8955 32.3203 36.7783 31.8613 36.6807C31.4056 36.583 31.0426 36.4658 30.7725 36.3291C30.5055 36.1924 30.307 36.0296 30.1768 35.8408C30.0498 35.652 29.9863 35.4274 29.9863 35.167C29.9863 34.734 30.1686 34.3678 30.5332 34.0684C30.901 33.7689 31.3698 33.6191 31.9395 33.6191C32.5384 33.6191 33.0234 33.7738 33.3945 34.083C33.7689 34.3923 33.9561 34.7878 33.9561 35.2695H33.0479C33.0479 35.0221 32.9421 34.8089 32.7305 34.6299C32.5221 34.4508 32.2585 34.3613 31.9395 34.3613C31.6107 34.3613 31.3535 34.4329 31.168 34.5762C30.9824 34.7194 30.8896 34.9066 30.8896 35.1377C30.8896 35.3558 30.9759 35.5202 31.1484 35.6309C31.321 35.7415 31.6318 35.8473 32.0811 35.9482C32.5335 36.0492 32.8997 36.1696 33.1797 36.3096C33.4596 36.4495 33.6663 36.6188 33.7998 36.8174C33.9365 37.0127 34.0049 37.252 34.0049 37.5352C34.0049 38.0072 33.8161 38.3864 33.4385 38.6729C33.0609 38.9561 32.571 39.0977 31.9688 39.0977C31.5456 39.0977 31.1712 39.0228 30.8457 38.873C30.5202 38.7233 30.2646 38.515 30.0791 38.248C29.8968 37.9779 29.8057 37.6865 29.8057 37.374H30.709C30.7253 37.6768 30.8457 37.9176 31.0703 38.0967C31.2982 38.2725 31.5977 38.3604 31.9688 38.3604C32.3105 38.3604 32.584 38.292 32.7891 38.1553C32.9974 38.0153 33.1016 37.8298 33.1016 37.5986ZM39.2412 36.2168V39H38.3037V31.8906H40.9258C41.7038 31.8906 42.3125 32.0892 42.752 32.4863C43.1947 32.8835 43.416 33.4092 43.416 34.0635C43.416 34.7536 43.1995 35.2858 42.7666 35.6602C42.3369 36.0312 41.7201 36.2168 40.916 36.2168H39.2412ZM39.2412 35.4502H40.9258C41.4271 35.4502 41.8112 35.333 42.0781 35.0986C42.3451 34.861 42.4785 34.5192 42.4785 34.0732C42.4785 33.6501 42.3451 33.3115 42.0781 33.0576C41.8112 32.8037 41.445 32.6719 40.9795 32.6621H39.2412V35.4502ZM47.9238 39C47.8717 38.8958 47.8294 38.7103 47.7969 38.4434C47.377 38.8796 46.8757 39.0977 46.293 39.0977C45.7721 39.0977 45.3441 38.9512 45.0088 38.6582C44.6768 38.362 44.5107 37.9876 44.5107 37.5352C44.5107 36.985 44.7191 36.5586 45.1357 36.2559C45.5557 35.9499 46.1449 35.7969 46.9033 35.7969H47.7822V35.3818C47.7822 35.0661 47.6878 34.8154 47.499 34.6299C47.3102 34.4411 47.0319 34.3467 46.6641 34.3467C46.3418 34.3467 46.0716 34.4281 45.8535 34.5908C45.6354 34.7536 45.5264 34.9505 45.5264 35.1816H44.6182C44.6182 34.918 44.7109 34.6641 44.8965 34.4199C45.0853 34.1725 45.3392 33.9772 45.6582 33.834C45.9805 33.6908 46.3337 33.6191 46.7178 33.6191C47.3265 33.6191 47.8034 33.7721 48.1484 34.0781C48.4935 34.3809 48.6725 34.7992 48.6855 35.333V37.7646C48.6855 38.2497 48.7474 38.6354 48.8711 38.9219V39H47.9238ZM46.4248 38.3115C46.708 38.3115 46.9766 38.2383 47.2305 38.0918C47.4844 37.9453 47.6683 37.7549 47.7822 37.5205V36.4365H47.0742C45.9674 36.4365 45.4141 36.7604 45.4141 37.4082C45.4141 37.6914 45.5085 37.9128 45.6973 38.0723C45.8861 38.2318 46.1286 38.3115 46.4248 38.3115ZM50.1367 36.3145C50.1367 35.4909 50.3271 34.8366 50.708 34.3516C51.0889 33.8633 51.5934 33.6191 52.2217 33.6191C52.8662 33.6191 53.3691 33.847 53.7305 34.3027L53.7744 33.7168H54.5996V38.873C54.5996 39.5566 54.3962 40.0954 53.9893 40.4893C53.5856 40.8831 53.042 41.0801 52.3584 41.0801C51.9775 41.0801 51.6048 40.9987 51.2402 40.8359C50.8757 40.6732 50.5973 40.4502 50.4053 40.167L50.874 39.625C51.2614 40.1035 51.735 40.3428 52.2949 40.3428C52.7344 40.3428 53.0762 40.2191 53.3203 39.9717C53.5677 39.7243 53.6914 39.376 53.6914 38.9268V38.4727C53.3301 38.8893 52.8369 39.0977 52.2119 39.0977C51.5934 39.0977 51.0921 38.8486 50.708 38.3506C50.3271 37.8525 50.1367 37.1738 50.1367 36.3145ZM51.0449 36.417C51.0449 37.0127 51.167 37.4814 51.4111 37.8232C51.6553 38.1618 51.9971 38.3311 52.4365 38.3311C53.0062 38.3311 53.4245 38.0723 53.6914 37.5547V35.1426C53.4147 34.638 52.9997 34.3857 52.4463 34.3857C52.0068 34.3857 51.6634 34.5566 51.416 34.8984C51.1686 35.2402 51.0449 35.7464 51.0449 36.417ZM58.4092 39.0977C57.693 39.0977 57.1104 38.8633 56.6611 38.3945C56.2119 37.9225 55.9873 37.2926 55.9873 36.5049V36.3389C55.9873 35.8148 56.0866 35.3477 56.2852 34.9375C56.487 34.5241 56.7669 34.2018 57.125 33.9707C57.4863 33.7363 57.877 33.6191 58.2969 33.6191C58.9837 33.6191 59.5176 33.8454 59.8984 34.2979C60.2793 34.7503 60.4697 35.3981 60.4697 36.2412V36.6172H56.8906C56.9036 37.138 57.055 37.5596 57.3447 37.8818C57.6377 38.2008 58.0088 38.3604 58.458 38.3604C58.777 38.3604 59.0472 38.2952 59.2686 38.165C59.4899 38.0348 59.6836 37.8623 59.8496 37.6475L60.4014 38.0771C59.9587 38.7575 59.2946 39.0977 58.4092 39.0977ZM58.2969 34.3613C57.9323 34.3613 57.6263 34.4948 57.3789 34.7617C57.1315 35.0254 56.9785 35.3965 56.9199 35.875H59.5664V35.8066C59.5404 35.3477 59.4167 34.9928 59.1953 34.7422C58.974 34.4883 58.6745 34.3613 58.2969 34.3613Z" fill="#1185E0"/>
<path d="M34.5681 11.1032H27.1176C26.4439 11.1032 25.9288 10.5754 25.9288 9.88534C25.9288 9.19525 26.444 8.66748 27.1176 8.66748H34.5681C35.2418 8.66748 35.7569 9.19525 35.7569 9.88534C35.7569 10.5754 35.2418 11.1032 34.5681 11.1032Z" fill="#1185E0"/>
<path d="M37.4214 16.9897H27.1176C26.4439 16.9897 25.9288 16.4619 25.9288 15.7718C25.9288 15.0818 26.444 14.554 27.1176 14.554H37.4215C38.0952 14.554 38.6104 15.0818 38.6104 15.7718C38.6104 16.4619 38.0952 16.9897 37.4214 16.9897Z" fill="#1185E0"/>
<path d="M42.8111 1.03517H21.7675C21.0938 1.03517 20.5786 1.56294 20.5786 2.25304V13.7419H18.4782C16.0211 13.742 14 15.8124 14 18.3294V25.1091C14 27.6261 16.0211 29.6965 18.4782 29.6965C18.6764 29.6965 18.8745 29.6965 19.0727 29.656H38.6896C41.6222 29.656 44 27.2202 44 24.216V2.25311C44 1.56294 43.4848 1.03517 42.8111 1.03517ZM20.5786 25.1091C20.5786 26.1646 19.8653 27.0171 18.8746 27.2201H18.4783V27.2606C17.329 27.2606 16.3779 26.2863 16.3779 25.109V18.3293C16.3779 17.152 17.329 16.1777 18.4783 16.1777H20.5787V25.1091H20.5786ZM41.6222 24.2159C41.6222 25.8398 40.2748 27.2201 38.6896 27.2201H22.4412C22.7583 26.5705 22.9564 25.8804 22.9564 25.1091V3.47098H41.6222V24.2159Z" fill="#1185E0"/>
<path d="M34.5681 22.5109H27.1176C26.4439 22.5109 25.9288 21.9831 25.9288 21.293C25.9288 20.6029 26.444 20.0751 27.1176 20.0751H34.5681C35.2418 20.0751 35.7569 20.6029 35.7569 21.293C35.7569 21.9831 35.2418 22.5109 34.5681 22.5109Z" fill="#1185E0"/>
</svg>
