<svg width="180" height="84" viewBox="0 0 180 84" fill="none" xmlns="http://www.w3.org/2000/svg">
<g filter="url(#filter0_ddd)">
<rect x="18" y="17" width="144" height="48" rx="24" fill="#1185E0"/>
<path d="M67.9873 45.2246H73.7969V47H65.7637V34.2031H67.9873V45.2246ZM76.1455 42.1572C76.1455 41.2256 76.3301 40.3877 76.6992 39.6436C77.0684 38.8936 77.5869 38.3193 78.2549 37.9209C78.9229 37.5166 79.6904 37.3145 80.5576 37.3145C81.8408 37.3145 82.8809 37.7275 83.6777 38.5537C84.4805 39.3799 84.9141 40.4756 84.9785 41.8408L84.9873 42.3418C84.9873 43.2793 84.8057 44.1172 84.4424 44.8555C84.085 45.5938 83.5693 46.165 82.8955 46.5693C82.2275 46.9736 81.4541 47.1758 80.5752 47.1758C79.2334 47.1758 78.1582 46.7305 77.3496 45.8398C76.5469 44.9434 76.1455 43.751 76.1455 42.2627V42.1572ZM78.2812 42.3418C78.2812 43.3203 78.4834 44.0879 78.8877 44.6445C79.292 45.1953 79.8545 45.4707 80.5752 45.4707C81.2959 45.4707 81.8555 45.1895 82.2539 44.627C82.6582 44.0645 82.8604 43.2412 82.8604 42.1572C82.8604 41.1963 82.6523 40.4346 82.2363 39.8721C81.8262 39.3096 81.2666 39.0283 80.5576 39.0283C79.8604 39.0283 79.3066 39.3066 78.8965 39.8633C78.4863 40.4141 78.2812 41.2402 78.2812 42.3418ZM87.6699 42.1748C87.6699 40.6982 88.0156 39.5205 88.707 38.6416C89.4043 37.7568 90.3271 37.3145 91.4756 37.3145C92.5596 37.3145 93.4121 37.6924 94.0332 38.4482L94.1299 37.4902H96.0547V46.71C96.0547 47.958 95.665 48.9424 94.8857 49.6631C94.1123 50.3838 93.0664 50.7441 91.748 50.7441C91.0508 50.7441 90.3682 50.5977 89.7002 50.3047C89.0381 50.0176 88.5342 49.6396 88.1885 49.1709L89.1992 47.8877C89.8555 48.667 90.6641 49.0566 91.625 49.0566C92.334 49.0566 92.8936 48.8633 93.3037 48.4766C93.7139 48.0957 93.9189 47.5332 93.9189 46.7891V46.1475C93.3037 46.833 92.4834 47.1758 91.458 47.1758C90.3447 47.1758 89.4336 46.7334 88.7246 45.8486C88.0215 44.9639 87.6699 43.7393 87.6699 42.1748ZM89.7969 42.3594C89.7969 43.3145 89.9902 44.0674 90.377 44.6182C90.7695 45.1631 91.3115 45.4355 92.0029 45.4355C92.8643 45.4355 93.5029 45.0664 93.9189 44.3281V40.1445C93.5146 39.4238 92.8818 39.0635 92.0205 39.0635C91.3174 39.0635 90.7695 39.3418 90.377 39.8984C89.9902 40.4551 89.7969 41.2754 89.7969 42.3594ZM101.778 47H99.6426V37.4902H101.778V47ZM99.5107 35.0205C99.5107 34.6924 99.6133 34.4199 99.8184 34.2031C100.029 33.9863 100.328 33.8779 100.715 33.8779C101.102 33.8779 101.4 33.9863 101.611 34.2031C101.822 34.4199 101.928 34.6924 101.928 35.0205C101.928 35.3428 101.822 35.6123 101.611 35.8291C101.4 36.04 101.102 36.1455 100.715 36.1455C100.328 36.1455 100.029 36.04 99.8184 35.8291C99.6133 35.6123 99.5107 35.3428 99.5107 35.0205ZM107.344 37.4902L107.405 38.5889C108.108 37.7393 109.031 37.3145 110.174 37.3145C112.154 37.3145 113.162 38.4482 113.197 40.7158V47H111.062V40.8389C111.062 40.2354 110.93 39.79 110.666 39.5029C110.408 39.21 109.983 39.0635 109.392 39.0635C108.53 39.0635 107.889 39.4531 107.467 40.2324V47H105.331V37.4902H107.344Z" fill="white"/>
</g>
<defs>
<filter id="filter0_ddd" x="0" y="0" width="181" height="84" filterUnits="userSpaceOnUse" color-interpolation-filters="sRGB">
<feFlood flood-opacity="0" result="BackgroundImageFix"/>
<feColorMatrix in="SourceAlpha" type="matrix" values="0 0 0 0 0 0 0 0 0 0 0 0 0 0 0 0 0 0 127 0"/>
<feOffset dy="3"/>
<feGaussianBlur stdDeviation="2.5"/>
<feColorMatrix type="matrix" values="0 0 0 0 0 0 0 0 0 0 0 0 0 0 0 0 0 0 0.2 0"/>
<feBlend mode="normal" in2="BackgroundImageFix" result="effect1_dropShadow"/>
<feColorMatrix in="SourceAlpha" type="matrix" values="0 0 0 0 0 0 0 0 0 0 0 0 0 0 0 0 0 0 127 0"/>
<feOffset dy="1"/>
<feGaussianBlur stdDeviation="9"/>
<feColorMatrix type="matrix" values="0 0 0 0 0 0 0 0 0 0 0 0 0 0 0 0 0 0 0.12 0"/>
<feBlend mode="normal" in2="effect1_dropShadow" result="effect2_dropShadow"/>
<feColorMatrix in="SourceAlpha" type="matrix" values="0 0 0 0 0 0 0 0 0 0 0 0 0 0 0 0 0 0 127 0"/>
<feOffset dy="6"/>
<feGaussianBlur stdDeviation="5"/>
<feColorMatrix type="matrix" values="0 0 0 0 0 0 0 0 0 0 0 0 0 0 0 0 0 0 0.14 0"/>
<feBlend mode="normal" in2="effect2_dropShadow" result="effect3_dropShadow"/>
<feBlend mode="normal" in="SourceGraphic" in2="effect3_dropShadow" result="shape"/>
</filter>
</defs>
</svg>
