<svg width="503" height="437" viewBox="0 0 503 437" fill="none" xmlns="http://www.w3.org/2000/svg">
<path d="M77.9814 347.276L103.88 369.776L425.017 90.7768L399.118 68.2766L77.9814 347.276Z" fill="#1185E0"/>
<path d="M251.5 437C112.931 437 0 338.887 0 218.5C0 98.1128 112.931 0 251.5 0C390.069 0 503 98.1128 503 218.5C503 338.887 390.069 437 251.5 437ZM251.5 31.8204C133.075 31.8204 36.6263 115.614 36.6263 218.5C36.6263 321.386 133.075 405.18 251.5 405.18C369.925 405.18 466.374 321.386 466.374 218.5C466.374 115.614 369.925 31.8204 251.5 31.8204Z" fill="#1185E0"/>
</svg>
