<?xml version="1.0" encoding="iso-8859-1"?>
<!-- Generator: Adobe Illustrator 19.0.0, SVG Export Plug-In . SVG Version: 6.00 Build 0)  -->
<svg version="1.1" id="Capa_1" xmlns="http://www.w3.org/2000/svg" xmlns:xlink="http://www.w3.org/1999/xlink" x="0px" y="0px"
	 viewBox="0 0 444.082 444.082" style="enable-background:new 0 0 444.082 444.082;" xml:space="preserve">
<g>
	<path style="fill:#1185E0;" d="M303.543,267.494c-4.18,0-8.359-1.567-10.971-4.702l-27.69-27.69
		c-6.269-6.269-6.269-16.196,0-21.943c6.269-6.269,16.196-6.269,21.943,0l16.718,16.718l102.922-102.922l-88.816-88.816
		l-103.445,102.4l16.718,16.718c6.269,6.269,6.269,16.196,0,21.943c-6.269,6.269-16.196,6.269-21.943,0l-27.69-27.69
		c-3.135-3.135-4.702-6.792-4.702-10.971c0-4.18,1.567-8.359,4.702-10.971L306.678,4.702c6.269-6.269,16.196-6.269,21.943,0
		L439.38,115.461c6.269,6.269,6.269,16.196,0,21.943L314.514,262.792C311.902,265.927,307.722,267.494,303.543,267.494
		L303.543,267.494z"/>
	<path style="fill:#1185E0;" d="M126.433,444.082c-4.18,0-7.837-1.567-10.971-4.702L4.702,328.62
		c-6.269-6.269-6.269-16.196,0-21.943L129.567,181.29c3.135-3.135,6.792-4.702,10.971-4.702l0,0c4.18,0,8.359,1.567,10.971,4.702
		l27.69,27.69c6.269,6.269,6.269,16.196,0,21.943c-6.269,6.269-16.196,6.269-21.943,0l-16.718-16.718L37.616,317.649l88.816,88.816
		l102.922-102.922l-16.718-16.718c-6.269-6.269-6.269-16.196,0-21.943c6.269-6.269,16.196-6.269,21.943,0l27.69,27.69
		c3.135,3.135,4.702,6.792,4.702,10.971c0,4.18-1.567,8.359-4.702,10.971L136.882,439.38
		C134.269,442.514,130.612,444.082,126.433,444.082z"/>
</g>
<g>
	<path style="fill:#4DCFE0;" d="M380.865,396.539c-4.18,0-7.837-1.567-10.971-4.702l-51.722-51.722
		c-6.269-6.269-6.269-16.196,0-21.943c6.269-6.269,16.196-6.269,21.943,0l51.722,51.722c6.269,6.269,6.269,16.196,0,21.943
		C388.702,394.971,385.045,396.539,380.865,396.539z"/>
	<path style="fill:#4DCFE0;" d="M417.959,322.873c-2.612,0-4.702-0.522-7.314-1.567l-44.408-22.465
		c-7.837-3.657-10.971-13.584-6.792-20.898c3.657-7.837,13.584-10.971,20.898-6.792l44.408,22.465
		c7.837,3.657,10.971,13.584,6.792,20.898C428.931,319.739,423.706,322.873,417.959,322.873z"/>
	<path style="fill:#4DCFE0;" d="M307.2,433.633c-5.747,0-11.494-3.135-14.106-8.359l-22.465-44.408
		c-3.657-7.837-1.045-17.241,6.792-20.898s17.241-1.045,20.898,6.792l22.465,44.408c3.657,7.837,1.045,17.241-6.792,20.898
		C311.902,433.11,309.812,433.633,307.2,433.633z"/>
	<path style="fill:#4DCFE0;" d="M114.939,130.612c-4.18,0-7.837-1.567-10.971-4.702L52.245,74.188
		c-6.269-6.269-6.269-16.196,0-21.943c6.269-6.269,16.196-6.269,21.943,0l51.722,51.722c6.269,6.269,6.269,16.196,0,21.943
		C122.776,129.045,119.118,130.612,114.939,130.612z"/>
	<path style="fill:#4DCFE0;" d="M159.347,86.204c-5.747,0-11.494-3.135-14.106-8.359l-22.465-44.408
		c-3.657-7.837-1.045-17.241,6.792-20.898s17.241-1.045,20.898,6.792l22.465,44.408c3.657,7.837,1.045,17.241-6.792,20.898
		C164.049,85.682,161.959,86.204,159.347,86.204z"/>
	<path style="fill:#4DCFE0;" d="M70.531,175.02c-2.612,0-4.702-0.522-7.314-1.567l-44.408-22.465
		c-7.837-3.657-10.971-13.584-6.792-20.898c3.657-7.837,13.584-10.971,20.898-6.792l44.408,22.465
		c7.837,3.657,10.971,13.584,6.792,20.898C81.502,171.886,76.278,175.02,70.531,175.02z"/>
</g>
<g>
</g>
<g>
</g>
<g>
</g>
<g>
</g>
<g>
</g>
<g>
</g>
<g>
</g>
<g>
</g>
<g>
</g>
<g>
</g>
<g>
</g>
<g>
</g>
<g>
</g>
<g>
</g>
<g>
</g>
</svg>
