<svg width="31" height="41" viewBox="0 0 31 41" fill="none" xmlns="http://www.w3.org/2000/svg">
<path d="M1.7627 36.2168V39H0.825195V31.8906H3.44727C4.22526 31.8906 4.83398 32.0892 5.27344 32.4863C5.71615 32.8835 5.9375 33.4092 5.9375 34.0635C5.9375 34.7536 5.72103 35.2858 5.28809 35.6602C4.8584 36.0312 4.24154 36.2168 3.4375 36.2168H1.7627ZM1.7627 35.4502H3.44727C3.94857 35.4502 4.33268 35.333 4.59961 35.0986C4.86654 34.861 5 34.5192 5 34.0732C5 33.6501 4.86654 33.3115 4.59961 33.0576C4.33268 32.8037 3.96647 32.6719 3.50098 32.6621H1.7627V35.4502ZM9.7959 34.5273C9.65918 34.5046 9.51107 34.4932 9.35156 34.4932C8.75911 34.4932 8.3571 34.7454 8.14551 35.25V39H7.24219V33.7168H8.12109L8.13574 34.3271C8.43197 33.8551 8.85189 33.6191 9.39551 33.6191C9.57129 33.6191 9.70475 33.6419 9.7959 33.6875V34.5273ZM10.5439 36.3096C10.5439 35.792 10.6449 35.3265 10.8467 34.9131C11.0518 34.4997 11.335 34.1807 11.6963 33.9561C12.0609 33.7314 12.4759 33.6191 12.9414 33.6191C13.6608 33.6191 14.2419 33.8682 14.6846 34.3662C15.1305 34.8643 15.3535 35.5267 15.3535 36.3535V36.417C15.3535 36.9313 15.2542 37.3936 15.0557 37.8037C14.8604 38.2106 14.5788 38.528 14.2109 38.7559C13.8464 38.9837 13.4264 39.0977 12.9512 39.0977C12.235 39.0977 11.654 38.8486 11.208 38.3506C10.7653 37.8525 10.5439 37.1934 10.5439 36.373V36.3096ZM11.4521 36.417C11.4521 37.0029 11.5872 37.4733 11.8574 37.8281C12.1309 38.1829 12.4954 38.3604 12.9512 38.3604C13.4102 38.3604 13.7747 38.1813 14.0449 37.8232C14.3151 37.4619 14.4502 36.9574 14.4502 36.3096C14.4502 35.7301 14.3118 35.2614 14.0352 34.9033C13.7617 34.542 13.3971 34.3613 12.9414 34.3613C12.4954 34.3613 12.1357 34.5387 11.8623 34.8936C11.5889 35.2484 11.4521 35.7562 11.4521 36.417ZM17.0391 39V34.415H16.2041V33.7168H17.0391V33.2676C17.0391 32.6784 17.2067 32.2194 17.542 31.8906C17.8805 31.5618 18.3574 31.3975 18.9727 31.3975C19.3372 31.3975 19.7979 31.4967 20.3545 31.6953L20.2031 32.457C19.7962 32.2943 19.4089 32.2129 19.041 32.2129C18.6536 32.2129 18.3737 32.3008 18.2012 32.4766C18.0319 32.6491 17.9473 32.9095 17.9473 33.2578V33.7168H19.0264V34.415H17.9473V39H17.0391ZM20.8037 39H19.8955V33.7168H20.8037V39ZM23.5049 39H22.6016V31.5H23.5049V39ZM27.3975 39.0977C26.6813 39.0977 26.0986 38.8633 25.6494 38.3945C25.2002 37.9225 24.9756 37.2926 24.9756 36.5049V36.3389C24.9756 35.8148 25.0749 35.3477 25.2734 34.9375C25.4753 34.5241 25.7552 34.2018 26.1133 33.9707C26.4746 33.7363 26.8652 33.6191 27.2852 33.6191C27.972 33.6191 28.5059 33.8454 28.8867 34.2979C29.2676 34.7503 29.458 35.3981 29.458 36.2412V36.6172H25.8789C25.8919 37.138 26.0433 37.5596 26.333 37.8818C26.626 38.2008 26.9971 38.3604 27.4463 38.3604C27.7653 38.3604 28.0355 38.2952 28.2568 38.165C28.4782 38.0348 28.6719 37.8623 28.8379 37.6475L29.3896 38.0771C28.9469 38.7575 28.2829 39.0977 27.3975 39.0977ZM27.2852 34.3613C26.9206 34.3613 26.6146 34.4948 26.3672 34.7617C26.1198 35.0254 25.9668 35.3965 25.9082 35.875H28.5547V35.8066C28.5286 35.3477 28.4049 34.9928 28.1836 34.7422C27.9622 34.4883 27.6628 34.3613 27.2852 34.3613Z" fill="#1185E0"/>
<path d="M24.2216 25.0528C21.7282 21.8074 18.4828 20.0264 14.9999 20.0264C11.517 20.0264 8.2717 21.8074 5.77824 25.0528L3.87854 23.5885C6.80728 19.7494 10.7651 17.6518 14.9999 17.6518C19.2347 17.6518 23.1529 19.7494 26.1213 23.5885L24.2216 25.0528Z" fill="#1185E0"/>
<path d="M14.9998 17.81C11.5961 17.81 8.82568 15.0396 8.82568 11.5963C8.82568 8.15308 11.5961 5.38266 14.9998 5.38266C18.4036 5.38266 21.174 8.15308 21.174 11.5963C21.174 15.0396 18.4036 17.81 14.9998 17.81ZM14.9998 7.75726C12.9022 7.75726 11.2004 9.49871 11.2004 11.5963C11.2004 13.694 12.9022 15.4354 14.9998 15.4354C17.0975 15.4354 18.7993 13.694 18.7993 11.5963C18.7993 9.49871 17.0975 7.75726 14.9998 7.75726Z" fill="#1185E0"/>
<path d="M15 30C6.72821 30 0 23.2718 0 15C0 6.72821 6.72821 0 15 0C23.2718 0 30 6.72821 30 15C30 23.2718 23.2718 30 15 30ZM15 2.37468C8.0343 2.37468 2.37468 8.0343 2.37468 15C2.37468 21.9657 8.0343 27.6253 15 27.6253C21.9657 27.6253 27.6253 21.9657 27.6253 15C27.6253 8.0343 21.9657 2.37468 15 2.37468Z" fill="#1185E0"/>
</svg>
