<svg width="529" height="227" viewBox="0 0 529 227" fill="none" xmlns="http://www.w3.org/2000/svg">
<path d="M91.8072 103.79C89.6348 104.952 87.7201 106.114 86.1 107.276C84.4615 108.439 83.1543 108.931 82.1601 108.734C81.166 108.537 80.6689 107.533 80.6689 105.681C80.6689 103.83 81.2212 100.6 82.3075 95.9317C83.7619 89.5306 85.8791 84.9217 88.6959 82.1052C91.5127 79.2887 94.7161 76.7283 98.3429 74.4042C106.499 69.1651 112.703 63.9851 116.974 58.8445C121.227 53.7039 123.676 49.0557 124.32 44.8801C124.946 40.7046 123.768 37.3169 120.785 34.6974C117.803 32.0779 113.126 30.8764 106.775 31.0537C101.16 31.2506 95.6734 31.9794 90.316 33.2399C84.9585 34.5004 79.9325 36.1549 75.2194 38.1835C70.5064 40.2122 66.2535 42.556 62.4426 45.1756C58.6316 47.7951 55.5571 50.454 53.2006 53.1721C46.4992 60.7353 42.2831 67.4712 40.5526 73.3997C38.822 79.3281 38.7299 84.646 40.2764 89.3927C41.8229 94.1394 44.6213 98.5512 48.7084 102.628C52.7955 106.705 57.4533 110.684 62.7187 114.564C69.7883 119.803 77.1341 125.082 84.7376 130.419C92.3595 135.757 98.84 141.429 104.179 147.436C109.518 153.444 112.924 160.002 114.378 167.073C115.833 174.164 113.826 182.062 108.395 190.787C106.407 194.096 104.455 196.991 102.541 199.512C100.644 202.033 98.6927 204.259 96.686 206.209C94.6977 208.139 92.5621 209.99 90.2976 211.743C88.0331 213.496 85.5477 215.328 82.823 217.278C74.1148 223.088 65.0568 226.298 55.6307 226.87C46.2046 227.46 37.4964 226.042 29.5247 222.655C21.553 219.267 14.8884 214.304 9.53098 207.824C4.17354 201.324 1.22786 193.918 0.693962 185.567C0.325753 181.116 0.104837 177.374 0.0127849 174.36C-0.0792673 171.347 0.325769 168.55 1.22788 165.931C2.12999 163.311 3.89738 160.593 6.53007 157.777C9.16276 154.96 13.1026 151.612 18.368 147.732C21.8107 145.211 24.1305 143.95 25.3087 143.95C26.487 143.95 27.0761 144.639 27.0761 145.979C27.0761 147.338 26.7079 149.091 25.9899 151.218C25.2719 153.345 24.8116 155.098 24.6275 156.457C22.989 164.985 23.2652 172.942 25.4376 180.309C27.61 187.675 31.016 193.603 35.637 198.055C40.258 202.506 45.7811 205.184 52.2248 206.051C58.65 206.918 65.1489 205.224 71.6662 200.97C76.5634 197.877 79.8588 194.332 81.5894 190.353C83.32 186.375 83.8539 182.259 83.228 177.985C82.5836 173.711 80.8162 169.594 77.9258 165.616C75.0169 161.637 71.4085 158.013 67.0452 154.704C62.3321 151.415 57.122 147.87 51.4148 144.088C45.7075 140.306 40.1291 136.229 34.698 131.877C29.267 127.504 24.2777 122.718 19.7488 117.479C15.2198 112.24 11.7771 106.469 9.42052 100.166C7.06398 93.8636 6.10664 86.8913 6.5669 79.2099C7.00875 71.5483 9.60463 63.0594 14.3177 53.7433C18.8467 44.6241 24.6091 36.6276 31.5867 29.7341C38.5642 22.8602 46.1862 17.1287 54.434 12.5593C62.6819 8.00955 71.206 4.66125 80.0062 2.51441C88.8063 0.387259 97.4592 -0.40056 105.983 0.190315C111.065 0.584232 115.999 2.1402 120.804 4.83853C125.609 7.55655 129.862 11.0427 133.58 15.3167C137.299 19.5907 140.429 24.4359 142.97 29.8719C145.51 35.308 147.002 40.8819 147.462 46.5937C147.904 52.3252 147.278 58.0763 145.566 63.9063C143.835 69.7166 140.632 75.0541 135.919 79.8993C133.194 82.6173 130.119 84.9414 126.677 86.8913C123.234 88.8412 119.552 90.6729 115.667 92.4259C111.764 94.1788 107.788 95.912 103.7 97.6649C99.6133 99.4179 95.6182 101.447 91.8072 103.79Z" fill="#1185E0"/>
<path d="M150.003 170.697C148.732 176.133 147.462 181.845 146.192 187.872C144.921 193.879 144.295 199.217 144.295 203.865C144.295 208.907 144.921 212.196 146.192 213.752C142.933 214.343 139.564 214.343 136.121 213.752C132.678 213.161 129.585 211.999 126.879 210.266C124.154 208.513 122.074 206.189 120.62 203.294C119.165 200.398 118.907 196.794 119.81 192.52C122.166 179.718 125.02 165.99 128.37 151.356C131.721 136.722 135.845 122.107 140.742 107.572C145.639 93.0167 151.475 79.1509 158.287 65.9743C165.081 52.7781 173.2 41.2364 182.626 31.3491C185.516 28.4341 188.517 26.4448 191.592 25.3813C194.666 24.3177 197.575 24.1798 200.3 24.9479C203.025 25.7161 205.326 27.469 207.241 30.187C209.137 32.9051 210.278 36.6867 210.647 41.5318C210.094 50.0601 208.511 58.4112 205.897 66.5455C203.264 74.6996 199.858 82.2628 195.697 89.2351C191.518 96.2271 186.731 102.333 181.282 107.572C175.851 112.811 170.033 116.691 163.884 119.212C163.332 120.374 162.927 121.438 162.669 122.403C162.393 123.368 162.08 124.156 161.712 124.727C164.786 122.009 168.284 119.783 172.187 118.03C176.09 116.277 180.214 115.411 184.559 115.411C188.37 115.411 191.5 116.199 193.948 117.735C196.397 119.291 198.293 121.379 199.656 123.998C201.018 126.618 201.791 129.631 201.975 133.019C202.159 136.407 201.791 139.952 200.889 143.635C199.619 148.106 198.477 152.163 197.483 155.846C196.489 159.53 195.587 162.976 194.758 166.167C193.93 169.358 193.12 172.371 192.31 175.188C191.5 178.004 190.727 180.86 189.99 183.775C188.904 188.423 188.499 191.535 188.775 193.091C189.051 194.647 189.64 195.218 190.542 194.844C191.445 194.45 192.586 193.249 193.948 191.2C195.311 189.172 196.71 186.985 198.164 184.661C199.619 182.337 200.889 180.112 201.975 177.965C203.062 175.838 203.872 174.282 204.424 173.317C207.498 166.915 210.683 160.219 213.942 153.247C217.201 146.255 219.833 140.543 221.822 136.072C222.54 134.713 223.589 133.886 224.952 133.59C226.314 133.295 227.584 133.492 228.762 134.181C229.941 134.87 230.935 135.835 231.745 137.096C232.555 138.356 232.702 139.853 232.15 141.606C230.88 145.683 228.615 151.356 225.357 158.624C222.098 165.891 218.379 173.907 214.2 182.633C212.561 185.745 210.665 189.329 208.493 193.406C206.32 197.483 203.872 201.265 201.147 204.751C198.422 208.237 195.476 210.857 192.31 212.61C189.143 214.363 185.829 214.441 182.387 212.905C176.587 209.99 172.316 205.913 169.61 200.694C166.885 195.455 165.523 189.743 165.523 183.519C165.523 177.315 166.388 171.052 168.1 164.749C169.812 158.446 171.948 152.281 174.488 146.274C175.041 144.718 175.575 143.024 176.127 141.193C176.679 139.341 176.845 137.805 176.679 136.544C176.495 135.284 175.961 134.555 175.041 134.358C174.139 134.161 172.5 134.949 170.144 136.682C165.246 141.153 161.159 146.274 157.901 152.104C154.624 157.895 151.991 164.099 150.003 170.697ZM196.784 50.2571C191.886 58.2142 187.173 66.2501 182.644 74.4042C178.115 82.5582 174.028 91.185 170.401 100.304C176.569 95.0651 182.092 88.0928 186.989 79.3478C191.886 70.6226 195.605 61.4049 198.146 51.7146C198.514 50.7495 198.588 49.9616 198.422 49.3905C198.238 48.7996 197.778 49.095 197.06 50.2571H196.784Z" fill="#1185E0"/>
<path d="M276.488 143.563C276.304 142.007 276.856 140.904 278.127 140.215C279.397 139.545 280.943 139.19 282.748 139.19C284.552 139.19 286.319 139.328 288.05 139.624C289.762 139.919 291.087 140.155 291.99 140.352C294.53 141.514 296.242 143.011 297.163 144.863C298.065 146.714 298.525 149.275 298.525 152.564C298.525 156.444 298.212 159.832 297.568 162.747C296.924 165.662 296.077 168.852 294.99 172.338L292.266 181.95C291.364 186.421 290.903 189.513 290.903 191.266C290.903 192.822 291.4 193.255 292.395 192.586C293.389 191.916 294.659 190.557 296.206 188.509C297.752 186.48 299.519 183.998 301.508 181.083C303.496 178.168 305.503 175.175 307.491 172.063H307.215C311.21 164.106 314.69 156.7 317.691 149.806C320.673 142.933 322.901 137.536 324.355 133.656C325.441 132.297 326.62 131.47 327.89 131.174C329.16 130.879 330.338 131.036 331.425 131.607C332.511 132.179 333.376 133.163 334.002 134.522C334.628 135.882 334.775 137.437 334.407 139.171L332.511 144.114C330.872 148.388 328.792 153.568 326.251 159.674C323.711 165.78 320.894 171.945 317.819 178.149C315.831 181.832 313.603 185.85 311.155 190.222C308.706 194.595 306.037 198.514 303.128 202C300.219 205.487 297.145 208.205 293.886 210.154C290.627 212.085 287.258 212.282 283.815 210.745C278.55 207.83 274.702 204.049 272.254 199.401C269.805 194.752 268.406 189.986 268.038 185.141C263.693 190.38 259.016 195.127 254.027 199.401C249.038 203.674 243.644 206.57 237.844 208.126C236.39 208.52 234.936 208.795 233.5 208.992C232.045 209.189 230.775 209.288 229.689 209.288C222.067 209.288 216.415 206.432 212.696 200.7C208.977 194.989 207.117 187.859 207.117 179.311C207.117 175.431 207.486 171.511 208.204 167.533C208.922 163.554 210.008 159.635 211.462 155.755C213.267 151.303 215.899 146.163 219.342 140.333C222.785 134.522 227.038 128.988 232.119 123.749C237.2 118.51 243.091 114.137 249.793 110.651C256.494 107.165 263.932 105.511 272.088 105.707C275.531 105.904 278.66 107.067 281.477 109.194C284.294 111.321 286.687 113.842 288.676 116.757C290.664 119.672 292.118 122.725 293.021 125.915C293.923 129.106 294.291 131.982 294.107 134.503C294.107 135.468 293.462 136.256 292.211 136.827C290.94 137.418 289.578 137.693 288.123 137.693C286.301 137.693 284.625 137.359 283.097 136.669C281.551 136 280.778 134.877 280.778 133.321C280.778 132.73 280.593 131.824 280.225 130.564C279.857 129.303 279.36 128.082 278.734 126.92C278.09 125.758 277.28 124.734 276.285 123.867C275.291 123 274.15 122.666 272.88 122.843C269.621 123.04 266.344 124.261 263.085 126.487C259.827 128.712 256.641 131.627 253.567 135.212C250.474 138.796 247.62 142.873 245.006 147.423C242.373 151.993 240.146 156.582 238.342 161.25C234.162 171.728 232.082 179.961 232.082 185.988C232.082 191.03 233.628 193.551 236.703 193.551C237.071 193.551 237.826 193.354 239.023 192.96C240.201 192.566 241.25 192.192 242.153 191.798H241.876C247.676 187.721 253.199 182.482 258.464 176.081C263.711 169.68 268.424 163.377 272.603 157.173C273.321 154.652 274.242 152.426 275.328 150.476C276.488 148.605 276.838 146.281 276.488 143.563Z" fill="#1185E0"/>
<path d="M390.13 40.9411C390.314 41.9062 390.406 42.9697 390.406 44.1318C390.406 45.2938 390.406 46.3574 390.406 47.3225C390.406 56.0477 389.228 64.6745 386.871 73.2225C384.515 81.7508 381.109 89.6094 376.672 96.7984C372.217 103.968 366.878 110.132 360.618 115.273C354.358 120.414 347.436 123.86 339.814 125.594C338.36 130.636 336.997 136.604 335.746 143.478C334.475 150.371 333.389 157.304 332.487 164.276C332.303 165.438 332.119 167.526 331.953 170.54C331.769 173.553 331.64 176.606 331.548 179.698C331.456 182.81 331.456 185.508 331.548 187.852C331.64 190.176 331.953 191.338 332.505 191.338C333.058 191.338 333.868 190.61 334.954 189.152C336.04 187.695 337.163 185.961 338.36 183.913C339.538 181.884 340.753 179.639 342.023 177.216C343.294 174.794 344.472 172.608 345.558 170.677L347.455 167.487C344.914 164.198 343.147 160.987 342.152 157.895C341.158 154.803 340.661 151.888 340.661 149.17C340.661 145.683 341.287 142.375 342.557 139.282C343.828 136.19 345.411 133.472 347.307 131.128C349.204 128.804 351.302 126.953 353.567 125.594C355.831 124.235 357.967 123.565 359.955 123.565C362.496 123.565 364.668 124.53 366.473 126.48C368.277 128.43 369.197 131.621 369.197 136.092C369.197 138.219 368.976 140.799 368.516 143.793C368.056 146.806 367.375 150.154 366.473 153.837C370.817 152.282 374.444 150.194 377.353 147.574C380.244 144.955 382.692 140.937 384.699 135.501C385.785 134.142 386.963 133.314 388.234 133.019C389.504 132.724 390.682 132.881 391.769 133.452C392.855 134.024 393.72 135.008 394.346 136.367C394.972 137.726 395.211 139.282 395.027 141.016C392.118 149.17 387.81 156.043 382.103 161.676C376.396 167.309 369.179 170.303 360.489 170.697C358.851 174.006 357.138 177.532 355.316 181.313C353.493 185.095 351.652 188.778 349.737 192.363C347.841 195.947 345.926 199.197 344.03 202.112C342.134 205.027 340.274 207.154 338.452 208.513C333.739 212.393 329.652 214.323 326.209 214.323C323.3 214.323 320.778 213.299 318.587 211.271C316.415 209.242 314.555 206.563 313.009 203.274C311.462 199.985 310.192 196.282 309.198 192.225C308.204 188.148 307.614 184.071 307.43 180.013C307.43 155.197 311.37 131.03 319.268 107.572C327.148 84.1143 338.526 61.7989 353.401 40.6456C357.028 35.8004 360.968 32.0582 365.239 29.4387C369.492 26.8191 373.432 25.5192 377.059 25.5192C380.685 25.5192 383.668 26.7403 386.043 29.1629C388.399 31.5855 389.762 35.505 390.13 40.9411ZM379.249 46.1801C375.07 51.9904 371.278 57.5249 367.835 62.764C364.392 68.0031 361.207 73.1437 358.317 78.1858C355.408 83.228 352.83 88.2701 350.566 93.3122C348.301 98.3544 346.166 103.692 344.178 109.305C349.609 106.981 354.506 103.534 358.869 98.9846C363.214 94.4349 366.896 89.2943 369.878 83.5628C372.861 77.851 375.181 71.7256 376.819 65.226C378.439 58.7264 379.249 52.3843 379.249 46.1801Z" fill="#1185E0"/>
<path d="M455.671 40.9411C455.855 41.9062 455.947 42.9697 455.947 44.1318C455.947 45.2938 455.947 46.3574 455.947 47.3225C455.947 56.0477 454.769 64.6745 452.413 73.2225C450.056 81.7508 446.65 89.6094 442.213 96.7984C437.776 103.968 432.419 110.132 426.178 115.273C419.918 120.414 412.977 123.86 405.374 125.594C403.919 130.636 402.557 136.604 401.287 143.478C400.016 150.371 398.93 157.304 398.028 164.276C397.844 165.438 397.66 167.526 397.476 170.54C397.292 173.553 397.163 176.606 397.071 179.698C396.979 182.81 396.979 185.508 397.071 187.852C397.163 190.176 397.476 191.338 398.028 191.338C398.562 191.338 399.39 190.61 400.477 189.152C401.563 187.695 402.704 185.961 403.883 183.913C405.061 181.884 406.276 179.639 407.546 177.216C408.817 174.794 409.995 172.608 411.081 170.677L412.977 167.487C410.437 164.198 408.669 160.987 407.675 157.895C406.681 154.803 406.184 151.888 406.184 149.17C406.184 145.683 406.81 142.375 408.08 139.282C409.35 136.19 410.934 133.472 412.83 131.128C414.726 128.804 416.825 126.953 419.09 125.594C421.354 124.235 423.49 123.565 425.478 123.565C428.019 123.565 430.191 124.53 432.014 126.48C433.818 128.43 434.738 131.621 434.738 136.092C434.738 138.219 434.518 140.799 434.057 143.793C433.597 146.806 432.916 150.154 432.014 153.837C436.359 152.282 439.985 150.194 442.894 147.574C445.785 144.955 448.233 140.937 450.24 135.501C451.326 134.142 452.505 133.314 453.775 133.019C455.045 132.724 456.223 132.881 457.31 133.452C458.396 134.024 459.261 135.008 459.887 136.367C460.513 137.726 460.752 139.282 460.568 141.016C457.659 149.17 453.37 156.043 447.644 161.676C441.937 167.309 434.72 170.303 426.03 170.697C424.392 174.006 422.68 177.532 420.857 181.313C419.034 185.095 417.193 188.778 415.279 192.363C413.382 195.947 411.468 199.197 409.571 202.112C407.675 205.027 405.816 207.154 403.993 208.513C399.28 212.393 395.193 214.323 391.75 214.323C388.841 214.323 386.319 213.299 384.128 211.271C381.956 209.242 380.096 206.563 378.55 203.274C377.003 199.985 375.733 196.282 374.739 192.225C373.745 188.148 373.156 184.071 372.971 180.013C372.971 155.197 376.911 131.03 384.809 107.572C392.689 84.1143 404.067 61.7989 418.942 40.6456C422.569 35.8004 426.509 32.0582 430.78 29.4387C435.033 26.8191 438.991 25.5192 442.618 25.5192C446.245 25.5192 449.228 26.7403 451.602 29.1629C453.941 31.5855 455.303 35.505 455.671 40.9411ZM444.791 46.1801C440.611 51.9904 436.819 57.5249 433.376 62.764C429.933 68.0031 426.748 73.1437 423.858 78.1858C420.949 83.228 418.372 88.2701 416.107 93.3122C413.843 98.3544 411.707 103.692 409.719 109.305C415.15 106.981 420.047 103.534 424.41 98.9846C428.755 94.4349 432.437 89.2943 435.42 83.5628C438.402 77.851 440.722 71.7256 442.36 65.226C443.981 58.7264 444.791 52.3843 444.791 46.1801Z" fill="#1185E0"/>
<path d="M518.598 170.323C518.561 179.422 515.984 188.364 511.105 195.848C508.804 199.374 506.042 202.525 502.894 205.204C502.102 205.874 501.311 206.524 500.482 207.134C500.04 207.449 499.598 207.764 499.138 208.06C495.916 210.246 509.798 201.678 506.687 203.392C506.374 203.569 506.061 203.746 505.748 203.924C503.907 204.909 501.973 205.736 500.003 206.405C483.673 211.999 465.373 206.031 454.677 191.732C443.999 177.433 442.637 156.989 451.345 141.212C453.407 137.47 456.003 134.043 458.985 131.089C460.513 129.592 462.133 128.193 463.845 126.952C464.269 126.637 464.711 126.342 465.153 126.046C467.84 124.215 453.793 132.802 458.157 130.419C459.169 129.867 460.219 129.355 461.286 128.902C469.184 125.495 478.021 124.766 486.325 126.815C502.747 130.872 515.579 145.683 518.119 163.488C518.432 165.773 518.58 168.038 518.598 170.323C518.598 170.283 520.365 169.298 520.145 169.417C521.378 168.668 522.612 167.92 523.827 167.152C525.06 166.383 526.275 165.635 527.49 164.867C527.693 164.729 529 164.079 529 163.882C528.926 144.797 517.291 127.425 500.298 121.457C491.719 118.444 482.237 118.523 473.695 121.674C471.707 122.403 469.774 123.309 467.896 124.353C463.459 126.815 459.077 129.552 454.843 132.408C451.253 134.831 447.994 137.805 445.232 141.232C433.487 155.846 431.922 177.59 441.477 193.958C451.013 210.266 469.774 218.341 487.208 213.575C492.897 212.019 497.85 208.986 502.894 205.874C507.846 202.821 512.707 199.807 516.775 195.455C522.943 188.856 527.085 180.249 528.466 171.032C528.816 168.668 528.982 166.285 529 163.882C529 163.922 527.233 164.906 527.453 164.788C526.22 165.537 524.986 166.285 523.771 167.053C522.538 167.821 521.323 168.57 520.108 169.338C519.887 169.476 518.598 170.126 518.598 170.323Z" fill="#1185E0"/>
<path d="M492.197 209.557C501.734 208.316 511.289 207.075 520.881 205.834C505.6 219.562 449.043 219.641 431.517 205.815C442.232 207.981 453.039 209.222 464.324 209.714" fill="#1185E0"/>
<path d="M469.939 211.645C458.672 208.533 445.711 194.785 441.974 181.569C438.734 170.086 439.47 158.86 444.091 148.047C447.994 138.947 453.996 131.739 462.317 126.775C476.935 118.149 496.911 123.072 501.734 128.784C506.889 134.634 508.693 140.74 504.606 148.145C501.881 153.069 499.985 152.656 496.064 154.468C497.445 152.36 498.825 150.509 499.948 148.5C502.471 143.97 501.347 139.715 496.782 137.549C494.167 136.308 491.222 135.816 488.184 135.402C492.805 139.932 495.383 144.679 491.921 151.474C491.498 150.863 491.185 150.528 491.019 150.135C489.233 145.762 485.901 144.305 481.667 145.742C460.053 152.951 450.056 186.296 456.352 195.947C453.867 191.634 449.467 190.294 449.191 185.41C448.62 175.069 450.977 164.217 455.082 154.743C458.433 147.003 469.111 135.776 476.457 132.428C480.268 130.695 486.822 128.174 491.885 128.902C489.362 128.548 486.895 127.445 484.373 127.366C476.641 127.13 470.215 130.399 465.134 136.584C460.734 141.941 457.77 148.185 455.616 154.881C455.395 155.59 450.019 177.236 449.725 178.024C448.233 174.833 453.48 152.675 456.776 140.247C450.572 145.191 445.509 159.273 446.448 169.279C447.865 184.326 456.518 211.861 493.726 212.964" fill="#1185E0"/>
<path d="M484.447 205.854C484.704 208.828 484.981 211.782 485.238 214.756C485.054 214.875 484.852 214.993 484.668 215.111C483.766 214.323 482.55 213.732 482.035 212.708C481.133 210.935 480.654 208.926 480.01 207.016C480.01 207.016 479.623 204.121 479.513 203.904C479.273 203.392 478.868 202.683 478.482 202.624C477.506 202.506 476.457 202.604 475.499 202.86C475.057 202.978 474.523 203.648 474.431 204.14C474.211 205.401 474.247 206.721 474.1 208.001C473.934 209.419 473.18 209.773 471.964 209.163C470.841 208.611 470.123 205.243 469.939 204.692C469.277 202.88 469.645 201.186 470.768 199.827C471.946 198.409 473.364 197.188 474.726 195.947C476.18 194.608 476.42 192.638 475.223 191.003C474.763 190.393 474.266 189.821 473.842 189.191C472.498 187.261 470.584 186.414 468.485 186.04C467.362 185.823 466.202 185.981 465.079 185.823C463.698 185.607 462.317 184.937 460.955 184.996C458.322 185.134 455.708 185.607 453.112 186.04C451.695 186.276 451.492 186.788 451.897 188.246C452.284 189.605 452.689 190.964 453.094 192.303C451.584 189.723 450.351 187.025 449.154 184.307C449.062 184.09 449.117 183.657 449.264 183.539C449.412 183.401 449.761 183.499 450.019 183.499C450.664 183.519 451.326 183.657 451.952 183.558C454.898 183.026 457.825 182.219 460.789 181.904C463.68 181.608 466.625 182.022 469.516 181.687C471.633 181.451 474.045 181.51 475.186 178.615C475.794 177.078 479.476 177.374 480.157 178.91C480.617 179.934 480.912 181.057 481.096 182.18C481.299 183.44 481.961 184.011 483.048 184.248C483.618 184.366 484.171 185.508 483.876 185.666C485.22 186.67 486.398 187.734 487.724 188.502C490.043 189.841 492.547 190.826 494.793 192.283C497.168 193.82 499.322 195.73 501.568 197.503C502.36 198.133 503.004 198.98 503.833 199.492C504.717 200.044 506.613 201.994 507 202.584C507.128 202.781 506.392 203.569 506.245 203.648C506.208 203.668 506.116 203.825 506.042 203.766C504.956 203.018 504.127 202.447 503.207 201.816C503.115 202.328 503.06 202.663 502.968 203.215C502.949 203.313 502.857 203.333 502.82 203.254C502.047 201.245 501.182 199.728 499.562 198.842C497.739 197.857 495.953 196.735 494.094 195.809C491.885 194.726 489.62 193.82 486.969 192.658C487.816 197.168 488.184 201.068 483.489 202.584L484.447 205.854ZM477.708 183.598C477.745 183.795 477.801 183.972 477.837 184.169C478.427 184.11 479.016 184.031 479.605 183.972C479.697 184.051 479.77 184.129 479.863 184.228C479.476 184.582 479.108 184.937 478.426 185.567C478.684 186.06 479.071 186.788 479.457 187.517C479.807 186.847 480.304 186.217 480.488 185.488C480.728 184.523 480.728 183.499 480.838 182.495C480.636 182.396 480.452 182.317 480.249 182.219C479.402 182.672 478.555 183.145 477.708 183.598Z" fill="#1185E0"/>
</svg>
