<?xml version="1.0" encoding="iso-8859-1"?>
<!-- Generator: Adobe Illustrator 19.0.0, SVG Export Plug-In . SVG Version: 6.00 Build 0)  -->
<svg version="1.1" id="Capa_1" xmlns="http://www.w3.org/2000/svg" xmlns:xlink="http://www.w3.org/1999/xlink" x="0px" y="0px"
	 viewBox="0 0 428.408 428.408" style="enable-background:new 0 0 428.408 428.408;" xml:space="preserve">
<g>
	
		<rect x="201.347" y="68.056" transform="matrix(-0.5431 -0.8397 0.8397 -0.5431 211.9324 408.175)" style="fill:#1185E0;" width="31.348" height="156.739"/>
	
		<rect x="138.596" y="271.566" transform="matrix(-0.8388 -0.5444 0.5444 -0.8388 238.7343 645.1602)" style="fill:#1185E0;" width="152.552" height="31.346"/>
</g>
<g>
	<path style="fill:#4DCFE0;" d="M107.102,287.347c-38.661,0-70.531-31.869-70.531-70.531s31.869-70.531,70.531-70.531
		s70.531,31.869,70.531,70.531S145.763,287.347,107.102,287.347z M107.102,177.633c-21.42,0-39.184,17.763-39.184,39.184
		S85.682,256,107.102,256s39.184-17.763,39.184-39.184S128.522,177.633,107.102,177.633z"/>
	<path style="fill:#4DCFE0;" d="M321.306,141.061c-38.661,0-70.531-31.869-70.531-70.531S282.645,0,321.306,0
		s70.531,31.869,70.531,70.531S359.967,141.061,321.306,141.061z M321.306,31.347c-21.42,0-39.184,17.763-39.184,39.184
		s17.763,39.184,39.184,39.184c21.42,0,39.184-17.763,39.184-39.184S342.727,31.347,321.306,31.347z"/>
	<path style="fill:#4DCFE0;" d="M321.306,428.408c-38.661,0-70.531-31.869-70.531-70.531s31.869-70.531,70.531-70.531
		s70.531,31.869,70.531,70.531S359.967,428.408,321.306,428.408z M321.306,318.694c-21.42,0-39.184,17.763-39.184,39.184
		c0,21.42,17.763,39.184,39.184,39.184c21.42,0,39.184-17.763,39.184-39.184C360.49,336.457,342.727,318.694,321.306,318.694z"/>
</g>
<g>
</g>
<g>
</g>
<g>
</g>
<g>
</g>
<g>
</g>
<g>
</g>
<g>
</g>
<g>
</g>
<g>
</g>
<g>
</g>
<g>
</g>
<g>
</g>
<g>
</g>
<g>
</g>
<g>
</g>
</svg>
