<svg width="180" height="84" viewBox="0 0 180 84" fill="none" xmlns="http://www.w3.org/2000/svg">
<g filter="url(#filter0_ddd)">
<rect x="18" y="17" width="144" height="48" rx="24" fill="#1185E0"/>
<path d="M63.4502 43.7041C63.4502 43.1416 63.251 42.708 62.8525 42.4033C62.46 42.0986 61.748 41.791 60.7168 41.4805C59.6855 41.1699 58.8652 40.8242 58.2559 40.4434C57.0898 39.7109 56.5068 38.7559 56.5068 37.5781C56.5068 36.5469 56.9258 35.6973 57.7637 35.0293C58.6074 34.3613 59.7002 34.0273 61.042 34.0273C61.9326 34.0273 62.7266 34.1914 63.4238 34.5195C64.1211 34.8477 64.6689 35.3164 65.0674 35.9258C65.4658 36.5293 65.665 37.2002 65.665 37.9385H63.4502C63.4502 37.2705 63.2393 36.749 62.8174 36.374C62.4014 35.9932 61.8037 35.8027 61.0244 35.8027C60.2979 35.8027 59.7324 35.958 59.3281 36.2686C58.9297 36.5791 58.7305 37.0127 58.7305 37.5693C58.7305 38.0381 58.9473 38.4307 59.3809 38.7471C59.8145 39.0576 60.5293 39.3623 61.5254 39.6611C62.5215 39.9541 63.3213 40.291 63.9248 40.6719C64.5283 41.0469 64.9707 41.4805 65.252 41.9727C65.5332 42.459 65.6738 43.0303 65.6738 43.6865C65.6738 44.7529 65.2637 45.6025 64.4434 46.2354C63.6289 46.8623 62.5215 47.1758 61.1211 47.1758C60.1953 47.1758 59.3428 47.0059 58.5635 46.666C57.79 46.3203 57.1865 45.8457 56.7529 45.2422C56.3252 44.6387 56.1113 43.9355 56.1113 43.1328H58.335C58.335 43.8594 58.5752 44.4219 59.0557 44.8203C59.5361 45.2188 60.2246 45.418 61.1211 45.418C61.8945 45.418 62.4746 45.2627 62.8613 44.9521C63.2539 44.6357 63.4502 44.2197 63.4502 43.7041ZM70.9404 47H68.8047V37.4902H70.9404V47ZM68.6729 35.0205C68.6729 34.6924 68.7754 34.4199 68.9805 34.2031C69.1914 33.9863 69.4902 33.8779 69.877 33.8779C70.2637 33.8779 70.5625 33.9863 70.7734 34.2031C70.9844 34.4199 71.0898 34.6924 71.0898 35.0205C71.0898 35.3428 70.9844 35.6123 70.7734 35.8291C70.5625 36.04 70.2637 36.1455 69.877 36.1455C69.4902 36.1455 69.1914 36.04 68.9805 35.8291C68.7754 35.6123 68.6729 35.3428 68.6729 35.0205ZM74.1504 42.1748C74.1504 40.6982 74.4961 39.5205 75.1875 38.6416C75.8848 37.7568 76.8076 37.3145 77.9561 37.3145C79.04 37.3145 79.8926 37.6924 80.5137 38.4482L80.6104 37.4902H82.5352V46.71C82.5352 47.958 82.1455 48.9424 81.3662 49.6631C80.5928 50.3838 79.5469 50.7441 78.2285 50.7441C77.5312 50.7441 76.8486 50.5977 76.1807 50.3047C75.5186 50.0176 75.0146 49.6396 74.6689 49.1709L75.6797 47.8877C76.3359 48.667 77.1445 49.0566 78.1055 49.0566C78.8145 49.0566 79.374 48.8633 79.7842 48.4766C80.1943 48.0957 80.3994 47.5332 80.3994 46.7891V46.1475C79.7842 46.833 78.9639 47.1758 77.9385 47.1758C76.8252 47.1758 75.9141 46.7334 75.2051 45.8486C74.502 44.9639 74.1504 43.7393 74.1504 42.1748ZM76.2773 42.3594C76.2773 43.3145 76.4707 44.0674 76.8574 44.6182C77.25 45.1631 77.792 45.4355 78.4834 45.4355C79.3447 45.4355 79.9834 45.0664 80.3994 44.3281V40.1445C79.9951 39.4238 79.3623 39.0635 78.501 39.0635C77.7979 39.0635 77.25 39.3418 76.8574 39.8984C76.4707 40.4551 76.2773 41.2754 76.2773 42.3594ZM87.9688 37.4902L88.0303 38.5889C88.7334 37.7393 89.6562 37.3145 90.7988 37.3145C92.7793 37.3145 93.7871 38.4482 93.8223 40.7158V47H91.6865V40.8389C91.6865 40.2354 91.5547 39.79 91.291 39.5029C91.0332 39.21 90.6084 39.0635 90.0166 39.0635C89.1553 39.0635 88.5137 39.4531 88.0918 40.2324V47H85.9561V37.4902H87.9688ZM108.75 46.0684C108.123 46.8066 107.232 47.1758 106.078 47.1758C105.047 47.1758 104.265 46.874 103.731 46.2705C103.204 45.667 102.94 44.7939 102.94 43.6514V37.4902H105.076V43.625C105.076 44.832 105.577 45.4355 106.579 45.4355C107.616 45.4355 108.316 45.0635 108.68 44.3193V37.4902H110.815V47H108.803L108.75 46.0684ZM122.568 42.3418C122.568 43.8125 122.234 44.9873 121.566 45.8662C120.898 46.7393 120.002 47.1758 118.877 47.1758C117.834 47.1758 116.999 46.833 116.372 46.1475V50.6562H114.236V37.4902H116.205L116.293 38.457C116.92 37.6953 117.772 37.3145 118.851 37.3145C120.011 37.3145 120.919 37.748 121.575 38.6152C122.237 39.4766 122.568 40.6748 122.568 42.21V42.3418ZM120.441 42.1572C120.441 41.208 120.251 40.4551 119.87 39.8984C119.495 39.3418 118.956 39.0635 118.253 39.0635C117.38 39.0635 116.753 39.4238 116.372 40.1445V44.3633C116.759 45.1016 117.392 45.4707 118.271 45.4707C118.95 45.4707 119.48 45.1982 119.861 44.6533C120.248 44.1025 120.441 43.2705 120.441 42.1572Z" fill="white"/>
</g>
<defs>
<filter id="filter0_ddd" x="0" y="0" width="181" height="84" filterUnits="userSpaceOnUse" color-interpolation-filters="sRGB">
<feFlood flood-opacity="0" result="BackgroundImageFix"/>
<feColorMatrix in="SourceAlpha" type="matrix" values="0 0 0 0 0 0 0 0 0 0 0 0 0 0 0 0 0 0 127 0"/>
<feOffset dy="3"/>
<feGaussianBlur stdDeviation="2.5"/>
<feColorMatrix type="matrix" values="0 0 0 0 0 0 0 0 0 0 0 0 0 0 0 0 0 0 0.2 0"/>
<feBlend mode="normal" in2="BackgroundImageFix" result="effect1_dropShadow"/>
<feColorMatrix in="SourceAlpha" type="matrix" values="0 0 0 0 0 0 0 0 0 0 0 0 0 0 0 0 0 0 127 0"/>
<feOffset dy="1"/>
<feGaussianBlur stdDeviation="9"/>
<feColorMatrix type="matrix" values="0 0 0 0 0 0 0 0 0 0 0 0 0 0 0 0 0 0 0.12 0"/>
<feBlend mode="normal" in2="effect1_dropShadow" result="effect2_dropShadow"/>
<feColorMatrix in="SourceAlpha" type="matrix" values="0 0 0 0 0 0 0 0 0 0 0 0 0 0 0 0 0 0 127 0"/>
<feOffset dy="6"/>
<feGaussianBlur stdDeviation="5"/>
<feColorMatrix type="matrix" values="0 0 0 0 0 0 0 0 0 0 0 0 0 0 0 0 0 0 0.14 0"/>
<feBlend mode="normal" in2="effect2_dropShadow" result="effect3_dropShadow"/>
<feBlend mode="normal" in="SourceGraphic" in2="effect3_dropShadow" result="shape"/>
</filter>
</defs>
</svg>
