<svg width="44" height="45" viewBox="0 0 44 45" fill="none" xmlns="http://www.w3.org/2000/svg">
<path d="M5.7373 36.6621H3.45215V43H2.51953V36.6621H0.239258V35.8906H5.7373V36.6621ZM7.80371 38.3564C8.2041 37.8649 8.72493 37.6191 9.36621 37.6191C10.4827 37.6191 11.0459 38.249 11.0557 39.5088V43H10.1523V39.5039C10.1491 39.123 10.0612 38.8415 9.88867 38.6592C9.7194 38.4769 9.4541 38.3857 9.09277 38.3857C8.7998 38.3857 8.54264 38.4639 8.32129 38.6201C8.09993 38.7764 7.92741 38.9814 7.80371 39.2354V43H6.90039V35.5H7.80371V38.3564ZM14.8506 43.0977C14.1344 43.0977 13.5518 42.8633 13.1025 42.3945C12.6533 41.9225 12.4287 41.2926 12.4287 40.5049V40.3389C12.4287 39.8148 12.528 39.3477 12.7266 38.9375C12.9284 38.5241 13.2083 38.2018 13.5664 37.9707C13.9277 37.7363 14.3184 37.6191 14.7383 37.6191C15.4251 37.6191 15.959 37.8454 16.3398 38.2979C16.7207 38.7503 16.9111 39.3981 16.9111 40.2412V40.6172H13.332C13.3451 41.138 13.4964 41.5596 13.7861 41.8818C14.0791 42.2008 14.4502 42.3604 14.8994 42.3604C15.2184 42.3604 15.4886 42.2952 15.71 42.165C15.9313 42.0348 16.125 41.8623 16.291 41.6475L16.8428 42.0771C16.4001 42.7575 15.736 43.0977 14.8506 43.0977ZM14.7383 38.3613C14.3737 38.3613 14.0677 38.4948 13.8203 38.7617C13.5729 39.0254 13.4199 39.3965 13.3613 39.875H16.0078V39.8066C15.9818 39.3477 15.8581 38.9928 15.6367 38.7422C15.4154 38.4883 15.1159 38.3613 14.7383 38.3613ZM23.4365 41.7549L25.4678 35.8906H26.4932L23.8564 43H23.0264L20.3945 35.8906H21.415L23.4365 41.7549ZM28.54 43H27.6367V37.7168H28.54V43ZM27.5635 36.3154C27.5635 36.1689 27.6074 36.0452 27.6953 35.9443C27.7865 35.8434 27.9199 35.793 28.0957 35.793C28.2715 35.793 28.4049 35.8434 28.4961 35.9443C28.5872 36.0452 28.6328 36.1689 28.6328 36.3154C28.6328 36.4619 28.5872 36.584 28.4961 36.6816C28.4049 36.7793 28.2715 36.8281 28.0957 36.8281C27.9199 36.8281 27.7865 36.7793 27.6953 36.6816C27.6074 36.584 27.5635 36.4619 27.5635 36.3154ZM34.7129 40.417C34.7129 41.2243 34.5273 41.8737 34.1562 42.3652C33.7852 42.8535 33.2871 43.0977 32.6621 43.0977C31.9948 43.0977 31.4788 42.8617 31.1143 42.3896L31.0703 43H30.2402V35.5H31.1436V38.2979C31.5081 37.8454 32.0111 37.6191 32.6523 37.6191C33.2936 37.6191 33.7965 37.8617 34.1611 38.3467C34.529 38.8317 34.7129 39.4958 34.7129 40.3389V40.417ZM33.8096 40.3145C33.8096 39.6992 33.6908 39.224 33.4531 38.8887C33.2155 38.5534 32.8737 38.3857 32.4277 38.3857C31.832 38.3857 31.404 38.6624 31.1436 39.2158V41.501C31.4202 42.0544 31.8516 42.3311 32.4375 42.3311C32.8704 42.3311 33.2074 42.1634 33.4482 41.8281C33.6891 41.4928 33.8096 40.9883 33.8096 40.3145ZM38.2979 43.0977C37.5817 43.0977 36.999 42.8633 36.5498 42.3945C36.1006 41.9225 35.876 41.2926 35.876 40.5049V40.3389C35.876 39.8148 35.9753 39.3477 36.1738 38.9375C36.3757 38.5241 36.6556 38.2018 37.0137 37.9707C37.375 37.7363 37.7656 37.6191 38.1855 37.6191C38.8724 37.6191 39.4062 37.8454 39.7871 38.2979C40.168 38.7503 40.3584 39.3981 40.3584 40.2412V40.6172H36.7793C36.7923 41.138 36.9437 41.5596 37.2334 41.8818C37.5264 42.2008 37.8975 42.3604 38.3467 42.3604C38.6657 42.3604 38.9359 42.2952 39.1572 42.165C39.3786 42.0348 39.5723 41.8623 39.7383 41.6475L40.29 42.0771C39.8473 42.7575 39.1833 43.0977 38.2979 43.0977ZM38.1855 38.3613C37.821 38.3613 37.515 38.4948 37.2676 38.7617C37.0202 39.0254 36.8672 39.3965 36.8086 39.875H39.4551V39.8066C39.429 39.3477 39.3053 38.9928 39.084 38.7422C38.8626 38.4883 38.5632 38.3613 38.1855 38.3613ZM42.6689 40.9932H41.8535L41.79 35.8906H42.7373L42.6689 40.9932ZM41.7559 42.5459C41.7559 42.3994 41.7998 42.2773 41.8877 42.1797C41.9788 42.0788 42.1123 42.0283 42.2881 42.0283C42.4639 42.0283 42.5973 42.0788 42.6885 42.1797C42.7796 42.2773 42.8252 42.3994 42.8252 42.5459C42.8252 42.6924 42.7796 42.8145 42.6885 42.9121C42.5973 43.0065 42.4639 43.0537 42.2881 43.0537C42.1123 43.0537 41.9788 43.0065 41.8877 42.9121C41.7998 42.8145 41.7559 42.6924 41.7559 42.5459Z" fill="#1185E0"/>
<g clip-path="url(#clip0)">
<path d="M19.9157 23.6557C19.1618 23.6557 18.5853 23.1153 18.5853 22.4085V15.0915C18.5853 14.3847 19.1618 13.8443 19.9157 13.8443C20.6695 13.8443 21.246 14.3847 21.246 15.0915V22.4085C21.2461 23.1153 20.6696 23.6557 19.9157 23.6557Z" fill="black"/>
<path d="M15.7916 27.5221C15.0377 27.5221 14.4612 26.9817 14.4612 26.275V11.225C14.4612 10.5182 15.0378 9.97784 15.7916 9.97784C16.5454 9.97784 17.1219 10.5183 17.1219 11.225V26.275C17.1219 26.9817 16.5454 27.5221 15.7916 27.5221Z" fill="black"/>
<path d="M11.623 31.1391C10.8691 31.1391 10.2927 30.5986 10.2927 29.8919V7.60806C10.2927 6.90127 10.8692 6.36087 11.623 6.36087C12.3768 6.36087 12.9533 6.90135 12.9533 7.60806V29.8919C12.9534 30.5986 12.3769 31.1391 11.623 31.1391Z" fill="black"/>
<path d="M7.49892 27.5221C6.74501 27.5221 6.16858 26.9817 6.16858 26.275V11.225C6.16858 10.5182 6.74509 9.97784 7.49892 9.97784C8.25275 9.97784 8.82926 10.5183 8.82926 11.225V26.275C8.82926 26.9817 8.25275 27.5221 7.49892 27.5221Z" fill="black"/>
<path d="M3.33034 23.9052C2.57651 23.9052 2 23.3647 2 22.658V14.842C2 14.1352 2.57651 13.5948 3.33034 13.5948C4.08416 13.5948 4.66067 14.1353 4.66067 14.842V22.658C4.66076 23.3647 4.08425 23.9052 3.33034 23.9052Z" fill="black"/>
<path d="M32.3771 31.1391C31.6232 31.1391 31.0468 30.5986 31.0468 29.8919V7.60806C31.0468 6.90127 31.6233 6.36087 32.3771 6.36087C33.131 6.36087 33.7074 6.90135 33.7074 7.60806V29.8919C33.7074 30.5986 33.1309 31.1391 32.3771 31.1391Z" fill="#1185E0"/>
<path d="M28.2085 27.5221C27.4546 27.5221 26.8782 26.9817 26.8782 26.275V11.225C26.8782 10.5182 27.4547 9.97784 28.2085 9.97784C28.9624 9.97784 29.5389 10.5183 29.5389 11.225V26.275C29.539 26.9817 28.9624 27.5221 28.2085 27.5221Z" fill="#1185E0"/>
<path d="M24.0844 25.5681C23.3305 25.5681 22.754 25.0277 22.754 24.3209V13.179C22.754 12.4722 23.3305 11.9318 24.0844 11.9318C24.8383 11.9318 25.4147 12.4723 25.4147 13.179V24.3209C25.4147 25.0277 24.8382 25.5681 24.0844 25.5681Z" fill="#1185E0"/>
<path d="M36.5011 27.5221C35.7471 27.5221 35.1707 26.9817 35.1707 26.275V11.225C35.1707 10.5182 35.7472 9.97784 36.5011 9.97784C37.255 9.97784 37.8314 10.5183 37.8314 11.225V26.275C37.8315 26.9817 37.255 27.5221 36.5011 27.5221Z" fill="#1185E0"/>
<path d="M40.6697 23.9052C39.9158 23.9052 39.3394 23.3647 39.3394 22.658V14.842C39.3394 14.1352 39.9159 13.5948 40.6697 13.5948C41.4236 13.5948 42.0001 14.1353 42.0001 14.842V22.658C42.0001 23.3647 41.4236 23.9052 40.6697 23.9052Z" fill="#1185E0"/>
</g>
<defs>
<clipPath id="clip0">
<rect width="40" height="37.5" fill="white" transform="translate(2)"/>
</clipPath>
</defs>
</svg>
