<svg width="67" height="43" viewBox="0 0 67 43" fill="none" xmlns="http://www.w3.org/2000/svg">
<path d="M2.99316 37.46L4.84863 33.8906H5.91309L3.46191 38.3486V41H2.52441V38.3486L0.0732422 33.8906H1.14746L2.99316 37.46ZM6.37793 38.3096C6.37793 37.792 6.47884 37.3265 6.68066 36.9131C6.88574 36.4997 7.16895 36.1807 7.53027 35.9561C7.89486 35.7314 8.3099 35.6191 8.77539 35.6191C9.49479 35.6191 10.0758 35.8682 10.5186 36.3662C10.9645 36.8643 11.1875 37.5267 11.1875 38.3535V38.417C11.1875 38.9313 11.0882 39.3936 10.8896 39.8037C10.6943 40.2106 10.4128 40.528 10.0449 40.7559C9.68034 40.9837 9.26042 41.0977 8.78516 41.0977C8.06901 41.0977 7.48796 40.8486 7.04199 40.3506C6.59928 39.8525 6.37793 39.1934 6.37793 38.373V38.3096ZM7.28613 38.417C7.28613 39.0029 7.42122 39.4733 7.69141 39.8281C7.96484 40.1829 8.32943 40.3604 8.78516 40.3604C9.24414 40.3604 9.60872 40.1813 9.87891 39.8232C10.1491 39.4619 10.2842 38.9574 10.2842 38.3096C10.2842 37.7301 10.1458 37.2614 9.86914 36.9033C9.5957 36.542 9.23112 36.3613 8.77539 36.3613C8.32943 36.3613 7.96973 36.5387 7.69629 36.8936C7.42285 37.2484 7.28613 37.7562 7.28613 38.417ZM15.832 40.4775C15.4805 40.891 14.9645 41.0977 14.2842 41.0977C13.721 41.0977 13.2913 40.9349 12.9951 40.6094C12.7021 40.2806 12.554 39.7956 12.5508 39.1543V35.7168H13.4541V39.1299C13.4541 39.9307 13.7796 40.3311 14.4307 40.3311C15.1208 40.3311 15.5798 40.0739 15.8076 39.5596V35.7168H16.7109V41H15.8516L15.832 40.4775ZM20.8916 36.5273C20.7549 36.5046 20.6068 36.4932 20.4473 36.4932C19.8548 36.4932 19.4528 36.7454 19.2412 37.25V41H18.3379V35.7168H19.2168L19.2314 36.3271C19.5277 35.8551 19.9476 35.6191 20.4912 35.6191C20.667 35.6191 20.8005 35.6419 20.8916 35.6875V36.5273ZM26.3818 38.7588L26.5186 39.6963L26.7188 38.8516L28.125 33.8906H28.916L30.2881 38.8516L30.4834 39.7109L30.6348 38.7539L31.7383 33.8906H32.6807L30.957 41H30.1025L28.6377 35.8193L28.5254 35.2773L28.4131 35.8193L26.8945 41H26.04L24.3213 33.8906H25.2588L26.3818 38.7588ZM35.8701 41.0977C35.154 41.0977 34.5713 40.8633 34.1221 40.3945C33.6729 39.9225 33.4482 39.2926 33.4482 38.5049V38.3389C33.4482 37.8148 33.5475 37.3477 33.7461 36.9375C33.9479 36.5241 34.2279 36.2018 34.5859 35.9707C34.9473 35.7363 35.3379 35.6191 35.7578 35.6191C36.4447 35.6191 36.9785 35.8454 37.3594 36.2979C37.7402 36.7503 37.9307 37.3981 37.9307 38.2412V38.6172H34.3516C34.3646 39.138 34.516 39.5596 34.8057 39.8818C35.0986 40.2008 35.4697 40.3604 35.9189 40.3604C36.238 40.3604 36.5081 40.2952 36.7295 40.165C36.9508 40.0348 37.1445 39.8623 37.3105 39.6475L37.8623 40.0771C37.4196 40.7575 36.7555 41.0977 35.8701 41.0977ZM35.7578 36.3613C35.3932 36.3613 35.0872 36.4948 34.8398 36.7617C34.5924 37.0254 34.4395 37.3965 34.3809 37.875H37.0273V37.8066C37.0013 37.3477 36.8776 36.9928 36.6562 36.7422C36.4349 36.4883 36.1354 36.3613 35.7578 36.3613ZM41.4229 41.0977C40.7067 41.0977 40.124 40.8633 39.6748 40.3945C39.2256 39.9225 39.001 39.2926 39.001 38.5049V38.3389C39.001 37.8148 39.1003 37.3477 39.2988 36.9375C39.5007 36.5241 39.7806 36.2018 40.1387 35.9707C40.5 35.7363 40.8906 35.6191 41.3105 35.6191C41.9974 35.6191 42.5312 35.8454 42.9121 36.2979C43.293 36.7503 43.4834 37.3981 43.4834 38.2412V38.6172H39.9043C39.9173 39.138 40.0687 39.5596 40.3584 39.8818C40.6514 40.2008 41.0225 40.3604 41.4717 40.3604C41.7907 40.3604 42.0609 40.2952 42.2822 40.165C42.5036 40.0348 42.6973 39.8623 42.8633 39.6475L43.415 40.0771C42.9723 40.7575 42.3083 41.0977 41.4229 41.0977ZM41.3105 36.3613C40.946 36.3613 40.64 36.4948 40.3926 36.7617C40.1452 37.0254 39.9922 37.3965 39.9336 37.875H42.5801V37.8066C42.554 37.3477 42.4303 36.9928 42.209 36.7422C41.9876 36.4883 41.6882 36.3613 41.3105 36.3613ZM46.2578 38.5537L45.6914 39.1445V41H44.7881V33.5H45.6914V38.0361L46.1748 37.4551L47.8203 35.7168H48.9189L46.8633 37.9238L49.1582 41H48.0986L46.2578 38.5537ZM52.1963 41.0977C51.4801 41.0977 50.8975 40.8633 50.4482 40.3945C49.999 39.9225 49.7744 39.2926 49.7744 38.5049V38.3389C49.7744 37.8148 49.8737 37.3477 50.0723 36.9375C50.2741 36.5241 50.554 36.2018 50.9121 35.9707C51.2734 35.7363 51.6641 35.6191 52.084 35.6191C52.7708 35.6191 53.3047 35.8454 53.6855 36.2979C54.0664 36.7503 54.2568 37.3981 54.2568 38.2412V38.6172H50.6777C50.6908 39.138 50.8421 39.5596 51.1318 39.8818C51.4248 40.2008 51.7959 40.3604 52.2451 40.3604C52.5641 40.3604 52.8343 40.2952 53.0557 40.165C53.277 40.0348 53.4707 39.8623 53.6367 39.6475L54.1885 40.0771C53.7458 40.7575 53.0817 41.0977 52.1963 41.0977ZM52.084 36.3613C51.7194 36.3613 51.4134 36.4948 51.166 36.7617C50.9186 37.0254 50.7656 37.3965 50.707 37.875H53.3535V37.8066C53.3275 37.3477 53.2038 36.9928 52.9824 36.7422C52.7611 36.4883 52.4616 36.3613 52.084 36.3613ZM56.4111 35.7168L56.4404 36.3809C56.8441 35.873 57.3714 35.6191 58.0225 35.6191C59.139 35.6191 59.7021 36.249 59.7119 37.5088V41H58.8086V37.5039C58.8053 37.123 58.7174 36.8415 58.5449 36.6592C58.3757 36.4769 58.1104 36.3857 57.749 36.3857C57.4561 36.3857 57.1989 36.4639 56.9775 36.6201C56.7562 36.7764 56.5837 36.9814 56.46 37.2354V41H55.5566V35.7168H56.4111ZM61.1045 38.3145C61.1045 37.5039 61.2965 36.8529 61.6807 36.3613C62.0648 35.8665 62.5677 35.6191 63.1895 35.6191C63.8079 35.6191 64.2979 35.8307 64.6592 36.2539V33.5H65.5625V41H64.7324L64.6885 40.4336C64.3271 40.8763 63.8242 41.0977 63.1797 41.0977C62.5677 41.0977 62.068 40.847 61.6807 40.3457C61.2965 39.8444 61.1045 39.1901 61.1045 38.3828V38.3145ZM62.0078 38.417C62.0078 39.016 62.1315 39.4847 62.3789 39.8232C62.6263 40.1618 62.9681 40.3311 63.4043 40.3311C63.9772 40.3311 64.3955 40.0739 64.6592 39.5596V37.1328C64.389 36.6348 63.974 36.3857 63.4141 36.3857C62.9714 36.3857 62.6263 36.5566 62.3789 36.8984C62.1315 37.2402 62.0078 37.7464 62.0078 38.417Z" fill="#1185E0"/>
<path d="M33.479 32C33.1436 32 32.8502 31.875 32.5988 31.625L19.1437 18.25C14.9521 14.0833 14.9521 7.2917 19.1437 3.12502C21.1557 1.12499 23.8803 0 26.7725 0C29.2456 0 31.5929 0.833334 33.521 2.33332C35.4072 0.833334 37.7545 0 40.2695 0C43.1617 0 45.8443 1.12499 47.8982 3.12502C49.9102 5.16669 51 7.83338 51 10.7084C51 13.5417 49.9102 16.2501 47.8563 18.2917L34.4012 31.625C34.1078 31.8749 33.8144 32 33.479 32ZM26.7724 2.5C24.5508 2.5 22.4551 3.33334 20.9041 4.87503C17.6766 8.0834 17.6766 13.2917 20.9041 16.5L33.479 29L46.0539 16.5417C47.6048 14.9584 48.4431 12.9167 48.4431 10.7084C48.4431 8.50003 47.6048 6.41673 46.0958 4.87503C44.5449 3.33334 42.491 2.5 40.2695 2.5C38.048 2.5 35.9941 3.33334 34.4432 4.87503C33.9403 5.375 33.1858 5.375 32.6827 4.87503C31.0479 3.33334 28.9521 2.5 26.7724 2.5Z" fill="#1185E0"/>
</svg>
