<svg width="75" height="41" viewBox="0 0 75 41" fill="none" xmlns="http://www.w3.org/2000/svg">
<path d="M2.91992 35.8311C2.11589 35.5999 1.52995 35.3167 1.16211 34.9814C0.797526 34.6429 0.615234 34.2262 0.615234 33.7314C0.615234 33.1715 0.838216 32.7093 1.28418 32.3447C1.7334 31.9769 2.31608 31.793 3.03223 31.793C3.52051 31.793 3.95508 31.8874 4.33594 32.0762C4.72005 32.265 5.01628 32.5254 5.22461 32.8574C5.4362 33.1895 5.54199 33.5524 5.54199 33.9463H4.59961C4.59961 33.5166 4.46289 33.1797 4.18945 32.9355C3.91602 32.6882 3.53027 32.5645 3.03223 32.5645C2.56999 32.5645 2.20866 32.667 1.94824 32.8721C1.69108 33.0739 1.5625 33.3555 1.5625 33.7168C1.5625 34.0065 1.68457 34.2523 1.92871 34.4541C2.17611 34.6527 2.5944 34.835 3.18359 35.001C3.77604 35.167 4.23828 35.3509 4.57031 35.5527C4.9056 35.7513 5.15299 35.984 5.3125 36.251C5.47526 36.5179 5.55664 36.832 5.55664 37.1934C5.55664 37.7695 5.33203 38.2318 4.88281 38.5801C4.43359 38.9251 3.83301 39.0977 3.08105 39.0977C2.59277 39.0977 2.13704 39.0049 1.71387 38.8193C1.29069 38.6305 0.963542 38.3734 0.732422 38.0479C0.504557 37.7223 0.390625 37.3529 0.390625 36.9395H1.33301C1.33301 37.3691 1.49089 37.7093 1.80664 37.96C2.12565 38.2074 2.55046 38.3311 3.08105 38.3311C3.57585 38.3311 3.95508 38.2301 4.21875 38.0283C4.48242 37.8265 4.61426 37.5514 4.61426 37.2031C4.61426 36.8548 4.49219 36.5863 4.24805 36.3975C4.00391 36.2054 3.5612 36.0166 2.91992 35.8311ZM10.1328 39C10.0807 38.8958 10.0384 38.7103 10.0059 38.4434C9.58594 38.8796 9.08464 39.0977 8.50195 39.0977C7.98112 39.0977 7.55306 38.9512 7.21777 38.6582C6.88574 38.362 6.71973 37.9876 6.71973 37.5352C6.71973 36.985 6.92806 36.5586 7.34473 36.2559C7.76465 35.9499 8.35384 35.7969 9.1123 35.7969H9.99121V35.3818C9.99121 35.0661 9.89681 34.8154 9.70801 34.6299C9.51921 34.4411 9.24089 34.3467 8.87305 34.3467C8.55078 34.3467 8.2806 34.4281 8.0625 34.5908C7.8444 34.7536 7.73535 34.9505 7.73535 35.1816H6.82715C6.82715 34.918 6.91992 34.6641 7.10547 34.4199C7.29427 34.1725 7.54818 33.9772 7.86719 33.834C8.18945 33.6908 8.54264 33.6191 8.92676 33.6191C9.53548 33.6191 10.0124 33.7721 10.3574 34.0781C10.7025 34.3809 10.8815 34.7992 10.8945 35.333V37.7646C10.8945 38.2497 10.9564 38.6354 11.0801 38.9219V39H10.1328ZM8.63379 38.3115C8.91699 38.3115 9.18555 38.2383 9.43945 38.0918C9.69336 37.9453 9.87728 37.7549 9.99121 37.5205V36.4365H9.2832C8.17643 36.4365 7.62305 36.7604 7.62305 37.4082C7.62305 37.6914 7.71745 37.9128 7.90625 38.0723C8.09505 38.2318 8.33757 38.3115 8.63379 38.3115ZM14.2256 37.7744L15.5342 33.7168H16.457L14.5625 39H13.874L11.96 33.7168H12.8828L14.2256 37.7744ZM19.7002 39.0977C18.984 39.0977 18.4014 38.8633 17.9521 38.3945C17.5029 37.9225 17.2783 37.2926 17.2783 36.5049V36.3389C17.2783 35.8148 17.3776 35.3477 17.5762 34.9375C17.778 34.5241 18.0579 34.2018 18.416 33.9707C18.7773 33.7363 19.168 33.6191 19.5879 33.6191C20.2747 33.6191 20.8086 33.8454 21.1895 34.2979C21.5703 34.7503 21.7607 35.3981 21.7607 36.2412V36.6172H18.1816C18.1947 37.138 18.346 37.5596 18.6357 37.8818C18.9287 38.2008 19.2998 38.3604 19.749 38.3604C20.068 38.3604 20.3382 38.2952 20.5596 38.165C20.7809 38.0348 20.9746 37.8623 21.1406 37.6475L21.6924 38.0771C21.2497 38.7575 20.5856 39.0977 19.7002 39.0977ZM19.5879 34.3613C19.2233 34.3613 18.9173 34.4948 18.6699 34.7617C18.4225 35.0254 18.2695 35.3965 18.2109 35.875H20.8574V35.8066C20.8314 35.3477 20.7077 34.9928 20.4863 34.7422C20.265 34.4883 19.9655 34.3613 19.5879 34.3613ZM22.8408 36.3145C22.8408 35.5039 23.0329 34.8529 23.417 34.3613C23.8011 33.8665 24.304 33.6191 24.9258 33.6191C25.5443 33.6191 26.0342 33.8307 26.3955 34.2539V31.5H27.2988V39H26.4688L26.4248 38.4336C26.0635 38.8763 25.5605 39.0977 24.916 39.0977C24.304 39.0977 23.8044 38.847 23.417 38.3457C23.0329 37.8444 22.8408 37.1901 22.8408 36.3828V36.3145ZM23.7441 36.417C23.7441 37.016 23.8678 37.4847 24.1152 37.8232C24.3626 38.1618 24.7044 38.3311 25.1406 38.3311C25.7135 38.3311 26.1318 38.0739 26.3955 37.5596V35.1328C26.1253 34.6348 25.7103 34.3857 25.1504 34.3857C24.7077 34.3857 24.3626 34.5566 24.1152 34.8984C23.8678 35.2402 23.7441 35.7464 23.7441 36.417ZM35.7529 37.1445H32.7744L32.1055 39H31.1387L33.8535 31.8906H34.6738L37.3936 39H36.4316L35.7529 37.1445ZM33.0576 36.373H35.4746L34.2637 33.0479L33.0576 36.373ZM40.5781 38.3604C40.9004 38.3604 41.182 38.2627 41.4229 38.0674C41.6637 37.8721 41.7972 37.6279 41.8232 37.335H42.6777C42.6615 37.6377 42.5573 37.9258 42.3652 38.1992C42.1732 38.4727 41.916 38.6908 41.5938 38.8535C41.2747 39.0163 40.9362 39.0977 40.5781 39.0977C39.8587 39.0977 39.2858 38.8584 38.8594 38.3799C38.4362 37.8981 38.2246 37.2406 38.2246 36.4072V36.2559C38.2246 35.7415 38.319 35.2842 38.5078 34.8838C38.6966 34.4834 38.9668 34.1725 39.3184 33.9512C39.6732 33.7298 40.0915 33.6191 40.5732 33.6191C41.1657 33.6191 41.6572 33.7965 42.0479 34.1514C42.4417 34.5062 42.6517 34.9668 42.6777 35.5332H41.8232C41.7972 35.1914 41.667 34.9115 41.4326 34.6934C41.2015 34.472 40.915 34.3613 40.5732 34.3613C40.1143 34.3613 39.7578 34.5273 39.5039 34.8594C39.2533 35.1882 39.1279 35.665 39.1279 36.29V36.4609C39.1279 37.0697 39.2533 37.5384 39.5039 37.8672C39.7546 38.196 40.1126 38.3604 40.5781 38.3604ZM45.1689 32.4375V33.7168H46.1553V34.415H45.1689V37.6914C45.1689 37.903 45.2129 38.0625 45.3008 38.1699C45.3887 38.2741 45.5384 38.3262 45.75 38.3262C45.8542 38.3262 45.9974 38.3066 46.1797 38.2676V39C45.9421 39.0651 45.7109 39.0977 45.4863 39.0977C45.0827 39.0977 44.7783 38.9756 44.5732 38.7314C44.3682 38.4873 44.2656 38.1406 44.2656 37.6914V34.415H43.3037V33.7168H44.2656V32.4375H45.1689ZM48.4463 39H47.543V33.7168H48.4463V39ZM47.4697 32.3154C47.4697 32.1689 47.5137 32.0452 47.6016 31.9443C47.6927 31.8434 47.8262 31.793 48.002 31.793C48.1777 31.793 48.3112 31.8434 48.4023 31.9443C48.4935 32.0452 48.5391 32.1689 48.5391 32.3154C48.5391 32.4619 48.4935 32.584 48.4023 32.6816C48.3112 32.7793 48.1777 32.8281 48.002 32.8281C47.8262 32.8281 47.6927 32.7793 47.6016 32.6816C47.5137 32.584 47.4697 32.4619 47.4697 32.3154ZM51.8896 37.7744L53.1982 33.7168H54.1211L52.2266 39H51.5381L49.624 33.7168H50.5469L51.8896 37.7744ZM56.2217 39H55.3184V33.7168H56.2217V39ZM55.2451 32.3154C55.2451 32.1689 55.2891 32.0452 55.377 31.9443C55.4681 31.8434 55.6016 31.793 55.7773 31.793C55.9531 31.793 56.0866 31.8434 56.1777 31.9443C56.2689 32.0452 56.3145 32.1689 56.3145 32.3154C56.3145 32.4619 56.2689 32.584 56.1777 32.6816C56.0866 32.7793 55.9531 32.8281 55.7773 32.8281C55.6016 32.8281 55.4681 32.7793 55.377 32.6816C55.2891 32.584 55.2451 32.4619 55.2451 32.3154ZM59.1475 32.4375V33.7168H60.1338V34.415H59.1475V37.6914C59.1475 37.903 59.1914 38.0625 59.2793 38.1699C59.3672 38.2741 59.5169 38.3262 59.7285 38.3262C59.8327 38.3262 59.9759 38.3066 60.1582 38.2676V39C59.9206 39.0651 59.6895 39.0977 59.4648 39.0977C59.0612 39.0977 58.7568 38.9756 58.5518 38.7314C58.3467 38.4873 58.2441 38.1406 58.2441 37.6914V34.415H57.2822V33.7168H58.2441V32.4375H59.1475ZM62.4248 39H61.5215V33.7168H62.4248V39ZM61.4482 32.3154C61.4482 32.1689 61.4922 32.0452 61.5801 31.9443C61.6712 31.8434 61.8047 31.793 61.9805 31.793C62.1562 31.793 62.2897 31.8434 62.3809 31.9443C62.472 32.0452 62.5176 32.1689 62.5176 32.3154C62.5176 32.4619 62.472 32.584 62.3809 32.6816C62.2897 32.7793 62.1562 32.8281 61.9805 32.8281C61.8047 32.8281 61.6712 32.7793 61.5801 32.6816C61.4922 32.584 61.4482 32.4619 61.4482 32.3154ZM66.3174 39.0977C65.6012 39.0977 65.0186 38.8633 64.5693 38.3945C64.1201 37.9225 63.8955 37.2926 63.8955 36.5049V36.3389C63.8955 35.8148 63.9948 35.3477 64.1934 34.9375C64.3952 34.5241 64.6751 34.2018 65.0332 33.9707C65.3945 33.7363 65.7852 33.6191 66.2051 33.6191C66.8919 33.6191 67.4258 33.8454 67.8066 34.2979C68.1875 34.7503 68.3779 35.3981 68.3779 36.2412V36.6172H64.7988C64.8118 37.138 64.9632 37.5596 65.2529 37.8818C65.5459 38.2008 65.917 38.3604 66.3662 38.3604C66.6852 38.3604 66.9554 38.2952 67.1768 38.165C67.3981 38.0348 67.5918 37.8623 67.7578 37.6475L68.3096 38.0771C67.8669 38.7575 67.2028 39.0977 66.3174 39.0977ZM66.2051 34.3613C65.8405 34.3613 65.5345 34.4948 65.2871 34.7617C65.0397 35.0254 64.8867 35.3965 64.8281 35.875H67.4746V35.8066C67.4486 35.3477 67.3249 34.9928 67.1035 34.7422C66.8822 34.4883 66.5827 34.3613 66.2051 34.3613ZM72.7539 37.5986C72.7539 37.3545 72.6611 37.1657 72.4756 37.0322C72.2933 36.8955 71.9727 36.7783 71.5137 36.6807C71.0579 36.583 70.695 36.4658 70.4248 36.3291C70.1579 36.1924 69.9593 36.0296 69.8291 35.8408C69.7021 35.652 69.6387 35.4274 69.6387 35.167C69.6387 34.734 69.821 34.3678 70.1855 34.0684C70.5534 33.7689 71.0221 33.6191 71.5918 33.6191C72.1908 33.6191 72.6758 33.7738 73.0469 34.083C73.4212 34.3923 73.6084 34.7878 73.6084 35.2695H72.7002C72.7002 35.0221 72.5944 34.8089 72.3828 34.6299C72.1745 34.4508 71.9108 34.3613 71.5918 34.3613C71.263 34.3613 71.0059 34.4329 70.8203 34.5762C70.6348 34.7194 70.542 34.9066 70.542 35.1377C70.542 35.3558 70.6283 35.5202 70.8008 35.6309C70.9733 35.7415 71.2842 35.8473 71.7334 35.9482C72.1859 36.0492 72.5521 36.1696 72.832 36.3096C73.112 36.4495 73.3187 36.6188 73.4521 36.8174C73.5889 37.0127 73.6572 37.252 73.6572 37.5352C73.6572 38.0072 73.4684 38.3864 73.0908 38.6729C72.7132 38.9561 72.2233 39.0977 71.6211 39.0977C71.1979 39.0977 70.8236 39.0228 70.498 38.873C70.1725 38.7233 69.917 38.515 69.7314 38.248C69.5492 37.9779 69.458 37.6865 69.458 37.374H70.3613C70.3776 37.6768 70.498 37.9176 70.7227 38.0967C70.9505 38.2725 71.25 38.3604 71.6211 38.3604C71.9629 38.3604 72.2363 38.292 72.4414 38.1553C72.6497 38.0153 72.7539 37.8298 72.7539 37.5986Z" fill="#1185E0"/>
<path d="M43.5681 10.8388H36.1177C35.444 10.8388 34.9288 10.3236 34.9288 9.64998C34.9288 8.97632 35.444 8.46112 36.1177 8.46112H43.5681C44.2419 8.46112 44.757 8.97632 44.757 9.64998C44.757 10.3236 44.2419 10.8388 43.5681 10.8388Z" fill="#1185E0"/>
<path d="M46.4215 16.5852H36.1177C35.444 16.5852 34.9288 16.07 34.9288 15.3963C34.9288 14.7227 35.444 14.2075 36.1177 14.2075H46.4216C47.0953 14.2075 47.6104 14.7227 47.6104 15.3963C47.6104 16.07 47.0952 16.5852 46.4215 16.5852Z" fill="#1185E0"/>
<path d="M51.8111 1.01053H30.7675C30.0938 1.01053 29.5786 1.52573 29.5786 2.1994V13.4147H27.4782C25.0211 13.4148 23 15.4359 23 17.893V24.5112C23 26.9683 25.0211 28.9895 27.4782 28.9895C27.6764 28.9895 27.8745 28.9895 28.0727 28.9499H47.6896C50.6222 28.9499 53 26.5721 53 23.6394V2.19947C53 1.52573 52.4848 1.01053 51.8111 1.01053ZM29.5786 24.5112C29.5786 25.5417 28.8653 26.3738 27.8746 26.572H27.4783V26.6116C26.329 26.6116 25.3779 25.6604 25.3779 24.5112V17.8929C25.3779 16.7437 26.329 15.7925 27.4783 15.7925H29.5787V24.5112H29.5786ZM50.6222 23.6394C50.6222 25.2246 49.2748 26.572 47.6896 26.572H31.4412C31.7583 25.9379 31.9564 25.2642 31.9564 24.5112V3.38834H50.6222V23.6394Z" fill="#1185E0"/>
<path d="M43.5681 21.9749H36.1177C35.444 21.9749 34.9288 21.4597 34.9288 20.786C34.9288 20.1124 35.444 19.5972 36.1177 19.5972H43.5681C44.2419 19.5972 44.757 20.1124 44.757 20.786C44.757 21.4597 44.2419 21.9749 43.5681 21.9749Z" fill="#1185E0"/>
</svg>
